<ttFont>
          <CharString index="0">
            -96 callsubr
            -59 callsubr
            -78 callsubr
            return
          </CharString>
          <CharString index="1">
            hstem
            113 107 424 55 vstem
            644 254 rmoveto
            -142 -44 -68 -156 -159 -65 57 150 vhcurveto
            382 -100 callgsubr
            -501 vlineto
            -179 98 -92 200 222 61 103 177 5 vhcurveto
            373 vlineto
            -24 callgsubr
            63 12 rlineto
            36 vlineto
            -2 -43 -29 -1 -30 hhcurveto
            -30 -30 -28 callgsubr
            -37 vlineto
            81 -10 rlineto
            return
          </CharString>
          <CharString index="2">
            282 rmoveto
            8 1 5 2 8 6 rrcurveto
            140 -46 123 -151 -116 -124 -94 -193 -178 72 -109 172 73 56 26 51 46 18 callgsubr
            -32 -38 -55 -29 -48 hhcurveto
            -121 -37 111 144 5 hvcurveto
            136 232 rmoveto
            65 32 -78 -105 hvcurveto
            -2 -7 -41 -7 -58 -36 callsubr
            52 81 70 hhcurveto
            return
          </CharString>
          <CharString index="3">
            -97 callgsubr
            300 -76 callgsubr
            return
          </CharString>
          <CharString index="4">
            -34 callsubr
            -37 callgsubr
            hintmask 01111000
            -68 callgsubr
            hintmask 10111000
            -103 callgsubr
            return
          </CharString>
          <CharString index="5">
            466 -105 callsubr
            return
          </CharString>
          <CharString index="6">
            -20 55 726 55 hstem
            -32 callsubr
            vstem
            -106 callgsubr
            return
          </CharString>
          <CharString index="7">
            vstem
            516 -21 callgsubr
            -54 -81 callgsubr
            -16 callgsubr
            3 -32 0 -76 -37 vvcurveto
            -202 vlineto
            -69 -47 -48 -31 -57 hhcurveto
            -63 -15 40 89 262 0 79 5 26 hvcurveto
            -44 callgsubr
            3 -32 0 -77 -37 vvcurveto
            -222 vlineto
            -110 75 -27 69 87 56 52 62 48 vhcurveto
            5 -89 -70 callsubr
            return
          </CharString>
          <CharString index="8">
            213 169 -55 callsubr
            72 59 33 62 54 vhcurveto
            5 -69 2 -10 4 -6 4 -4 rlinecurve
            50 7 51 5 50 2 4 callgsubr
            12 -3 13 -79 10 rcurveline
            -2 12 -1 14 17 vvcurveto
            282 vlineto
            139 -52 42 -126 -113 -93 -54 -94 vhcurveto
            -47 callsubr
            return
          </CharString>
          <CharString index="9">
            -92 callsubr
            -99 callgsubr
            1 42 33 1 33 hhcurveto
            -98 callgsubr
            return
          </CharString>
          <CharString index="10">
            135 133 rmoveto
            -58 callgsubr
            -99 callsubr
            return
          </CharString>
          <CharString index="11">
            -24 callgsubr
            -83 callgsubr
            return
          </CharString>
          <CharString index="12">
            -68 callsubr
            -83 -12 -59 callgsubr
            -53 callgsubr
            return
          </CharString>
          <CharString index="13">
            -1 -2 42 2 callsubr
            return
          </CharString>
          <CharString index="14">
            -73 callsubr
            197 85 -163 -186 -196 -86 -181 -196 hvcurveto
            return
          </CharString>
          <CharString index="15">
            122 44 rmoveto
            89 249 rlineto
            260 hlineto
            88 -247 -83 -12 -59 callgsubr
            1 42 50 1 50 hhcurveto
            return
          </CharString>
          <CharString index="16">
            68 48 74 63 91 vvcurveto
            45 -27 42 -51 -39 -34 -29 -40 -39 28 -31 53 vhcurveto
            3 hlineto
            -17 -55 -51 -45 -33 -18 4 -17 7 -11 0 callsubr
            return
          </CharString>
          <CharString index="17">
            hvcurveto
            -86 callsubr
            return
          </CharString>
          <CharString index="18">
            -90 callgsubr
            193 -93 callgsubr
          </CharString>
          <CharString index="19">
            43 -92 callgsubr
            return
          </CharString>
          <CharString index="20">
            650 rmoveto
            90 0 31 5 26 vhcurveto
            -74 callsubr
            -167 -44 rcurveline
            -4 -14 2 -20 4 -9 85 13 rcurveline
            3 -32 0 -24 -37 vvcurveto
            -145 -101 callgsubr
            1 42 41 1 41 hhcurveto
            40 40 -92 callgsubr
            return
          </CharString>
          <CharString index="21">
            -2 -12 -1 -13 3 -12 return
          </CharString>
          <CharString index="22">
            589 vlineto
            -107 callsubr
            return
          </CharString>
          <CharString index="23">
            rmoveto
            -61 callsubr
            12 -6 -20 callsubr
            19 -62 callsubr
            -9 6 -3 callgsubr
            -16 -10 callgsubr
          </CharString>
          <CharString index="24">
            -11 -82 callgsubr
            return
          </CharString>
          <CharString index="25">
            hstem
            96 95 230 95 -100 callsubr
            return
          </CharString>
          <CharString index="26">
            207 -148 rmoveto
            -16 -6 -12 -13 -18 hhcurveto
            -17 -23 12 34 -30 hvcurveto
            -29 -19 -24 -32 -4 -37 rrcurveto
            -32 25 20 -9 45 hhcurveto
            61 30 39 61 25 hvcurveto
            264 646 79 11 -62 callgsubr
            -33 -1 -33 hhcurveto
            -33 -33 5 callgsubr
            -13 -1 0 callgsubr
            78 -11 rcurveline
            -87 -233 -17 -41 -18 -49 -12 -42 rlinecurve
            -2 hlineto
            -11 44 -13 49 -18 44 -95 225 rcurveline
            86 14 -62 callgsubr
            -46 -1 -46 hhcurveto
            -46 -47 -28 callgsubr
            -3 -13 0 0 callgsubr
            78 -16 rcurveline
            194 -478 rlineto
            return
          </CharString>
          <CharString index="27">
            -101 callgsubr
            -17 callgsubr
            return
          </CharString>
          <CharString index="28">
            -1 -2 42 hvcurveto
            return
          </CharString>
          <CharString index="29">
            -48 -48 1 3 -41 -90 callsubr
            return
          </CharString>
          <CharString index="30">
            -74 callsubr
            -58 -9 return
          </CharString>
          <CharString index="31">
            vlineto
            47 -181 12 -3 13 1 12 2 rlinecurve
            -1 232 rlineto
            return
          </CharString>
          <CharString index="32">
            -98 -13 callgsubr
            50 102 233 102 vstem
            -102 callsubr
            return
          </CharString>
          <CharString index="33">
            -1 7 -3 6 -6 7 return
          </CharString>
          <CharString index="34">
            rmoveto
            -195 -84 179 197 186 86 164 193 return
          </CharString>
          <CharString index="35">
            rmoveto
            -39 40 -26 11 -22 -14 -84 -174 rcurveline
            9 -6 19 -7 17 callgsubr
          </CharString>
          <CharString index="36">
            -49 callsubr
            202 -131 206 -270 return
          </CharString>
          <CharString index="37">
            2 -9 4 -6 4 -4 rlinecurve
            50 7 52 5 50 2 4 callgsubr
            11 -3 14 -79 10 rcurveline
            -3 27 0 31 36 vvcurveto
            return
          </CharString>
          <CharString index="38">
            -38 callgsubr
            200 hmoveto
            -39 callgsubr
          </CharString>
          <CharString index="39">
            -37 0 -42 -4 -38 vhcurveto
            return
          </CharString>
          <CharString index="40">
            -12 2 -13 1 -12 -3 return
          </CharString>
          <CharString index="41">
            -40 -20 42 490 42 6 callgsubr
            106 vstem
            22 callsubr
            -56 callgsubr
            -63 callsubr
            return
          </CharString>
          <CharString index="42">
            rmoveto
            14 0 57 1 20 vhcurveto
            -18 -4 -27 -8 -21 -1 rrcurveto
            -144 hlineto
            121 112 83 61 106 vvcurveto
            86 -63 43 -91 -70 -67 -41 -78 -4 vhcurveto
            10 -15 43 -3 31 1 rrcurveto
            65 8 16 32 38 hhcurveto
            42 22 -27 -62 -96 -64 -78 -145 -138 hvcurveto
            -1 -17 4 -17 7 -12 rrcurveto
            return
          </CharString>
          <CharString index="43">
            -68 -48 -74 -63 -91 vvcurveto
            -45 27 -42 51 39 34 29 40 39 -28 31 -53 vhcurveto
            -3 hlineto
            17 55 51 45 33 18 -4 17 -7 11 -15 4 rrcurveto
            return
          </CharString>
          <CharString index="44">
            106 hmoveto
            175 73 71 76 76 75 -71 -175 -42 callgsubr
            return
          </CharString>
          <CharString index="45">
            13 22 -61 callgsubr
            return
          </CharString>
          <CharString index="46">
            -52 -10 54 -69 hhcurveto
            -69 -46 -88 0 hvcurveto
            11 -11 return
          </CharString>
          <CharString index="47">
            5 17 1 16 -6 17 rrcurveto
            return
          </CharString>
          <CharString index="48">
            -2 -43 -47 -1 -48 hhcurveto
            return
          </CharString>
          <CharString index="49">
            -137 3 -59 callgsubr
            81 -11 rlineto
            return
          </CharString>
          <CharString index="50">
            12 -62 callgsubr
            -39 -1 -39 hhcurveto
            -39 -39 5 callgsubr
            -13 -1 0 callgsubr
            63 -12 rcurveline
            return
          </CharString>
          <CharString index="51">
            -65 callgsubr
            endchar
          </CharString>
          <CharString index="52">
            rmoveto
            -178 -4 -130 -57 -128 vvcurveto
            -80 49 -53 85 return
          </CharString>
          <CharString index="53">
            -235 -165 -199 -231 return
          </CharString>
          <CharString index="54">
            rmoveto
            116 66 99 121 136 -66 100 -116 -114 -66 -100 -136 -121 65 -99 115 hvcurveto
            38 vmoveto
            -59 -46 66 130 116 31 68 74 76 31 -68 -116 -130 -46 -66 -61 hvcurveto
            return
          </CharString>
          <CharString index="55">
            rmoveto
            -61 callsubr
            17 -8 -20 callsubr
            14 -62 callsubr
            -14 8 -3 callgsubr
            -11 -10 callgsubr
          </CharString>
          <CharString index="56">
            -6 17 -4 6 -13 8 rrcurveto
            return
          </CharString>
          <CharString index="57">
            -17 callgsubr
            hintmask 10111100
            43 -88 callsubr
            return
          </CharString>
          <CharString index="58">
            238 163 193 235 return
          </CharString>
          <CharString index="59">
            rmoveto
            -16 3 -25 2 -19 -5 -356 -821 rcurveline
            return
          </CharString>
          <CharString index="60">
            -19 5 15 -9 26 hhcurveto
            13 16 3 4 18 hvcurveto
            return
          </CharString>
          <CharString index="61">
            -4 callgsubr
            137 247 rmoveto
            133 186 -3 11 -8 7 -11 3 rlinecurve
            -208 -197 rlineto
            -20 vlineto
            208 -197 11 3 8 7 3 11 rlinecurve
            return
          </CharString>
          <CharString index="62">
            -2 -43 -55 -1 -54 hhcurveto
            -55 -54 1 3 -41 -90 callsubr
            71 -10 rcurveline
            return
          </CharString>
          <CharString index="63">
            rmoveto
            14 -10 23 -5 9 -2 81 112 rcurveline
            82 -112 9 2 22 5 14 10 rlinecurve
            -99 174 rlineto
            4 -13 -7 3 -8 hhcurveto
            -8 -8 -3 -4 -12 hvcurveto
            endchar
          </CharString>
          <CharString index="64">
            -164 95 -122 160 150 107 122 164 return
          </CharString>
          <CharString index="65">
            4 13 0 13 -4 return
          </CharString>
          <CharString index="66">
            -27 callsubr
            -12 -59 callgsubr
            1 42 51 1 50 hhcurveto
            return
          </CharString>
          <CharString index="67">
            13 -3 12 return
          </CharString>
          <CharString index="68">
            37 0 46 3 callsubr
            6 32 32 2 32 hhcurveto
            12 13 0 -1 12 hvcurveto
            187 -8 98 -132 -209 vvcurveto
            -249 -96 -119 -186 vhcurveto
            return
          </CharString>
          <CharString index="69">
            12 1 13 return
          </CharString>
          <CharString index="70">
            -21 24 -21 return
          </CharString>
          <CharString index="71">
            hhcurveto
            -124 hlineto
            111 11 return
          </CharString>
          <CharString index="72">
            -202 13 callsubr
            367 365 -60 callgsubr
            -297 -56 callsubr
          </CharString>
          <CharString index="73">
            41 0 51 -33 -21 395 54 299 51 return
          </CharString>
          <CharString index="74">
            50 50 -102 callgsubr
            -91 10 rcurveline
            return
          </CharString>
          <CharString index="75">
            52 120 561 120 return
          </CharString>
          <CharString index="76">
            vlineto
            -91 -10 -3 -12 1 -13 2 -12 rlinecurve
            return
          </CharString>
          <CharString index="77">
            -198 104 -88 131 76 59 27 51 48 18 callgsubr
            -34 -40 -48 -28 -61 hhcurveto
            return
          </CharString>
          <CharString index="78">
            -589 vlineto
            -95 callsubr
            return
          </CharString>
          <CharString index="79">
            17 -37 callsubr
            return
          </CharString>
          <CharString index="80">
            52 799 rmoveto
            -86 callsubr
            81 -10 rcurveline
            -589 vlineto
            -68 callsubr
            -83 return
          </CharString>
          <CharString index="81">
            -2 -13 -1 return
          </CharString>
          <CharString index="82">
            -160 -95 -134 -154 return
          </CharString>
          <CharString index="83">
            -16 -78 rlineto
            43 -3 30 -16 -39 vvcurveto
            -34 -23 -20 -39 -19 -19 3 5 -24 vhcurveto
            endchar
          </CharString>
          <CharString index="84">
            hhcurveto
            81 58 27 51 52 hvcurveto
            -51 callsubr
            -32 -44 -52 -29 -56 hhcurveto
            return
          </CharString>
          <CharString index="85">
            rmoveto
            15 4 19 7 9 6 -84 174 rcurveline
            -22 14 -26 -11 -39 -40 rrcurveto
            endchar
          </CharString>
          <CharString index="86">
            83 12 -49 callgsubr
            return
          </CharString>
          <CharString index="87">
            11 -1 rrcurveto
            26 26 return
          </CharString>
          <CharString index="88">
            -224 vlineto
            -68 callsubr
            -83 -12 -59 callgsubr
            return
          </CharString>
          <CharString index="89">
            -2 -8 -44 -7 -64 -36 callsubr
            50 75 65 hhcurveto
            endchar
          </CharString>
          <CharString index="90">
            -47 -181 rlineto
            return
          </CharString>
          <CharString index="91">
            188 -166 rmoveto
            37 2 50 3 callsubr
            3 16 34 4 24 hhcurveto
            return
          </CharString>
          <CharString index="92">
            -16 4 -23 0 -18 -4 rrcurveto
            -336 -6 callsubr
            return
          </CharString>
          <CharString index="93">
            176 -39 39 hstemhm
            40 95 213 return
          </CharString>
          <CharString index="94">
            10 3 12 -1 13 -2 12 rlinecurve
            -3 return
          </CharString>
          <CharString index="95">
            90 52 33 71 53 -38 36 -67 3 hvcurveto
            6 43 rlineto
            -53 hlineto
            return
          </CharString>
          <CharString index="96">
            hlineto
            -69 -246 17 -6 16 2 17 4 rlinecurve
            69 246 rlineto
            return
          </CharString>
          <CharString index="97">
            1 44 hhcurveto
            return
          </CharString>
          <CharString index="98">
            58 0 5 5 26 vhcurveto
            -77 callsubr
            return
          </CharString>
          <CharString index="99">
            -63 callgsubr
            -17 callsubr
            return
          </CharString>
          <CharString index="100">
            hhcurveto
            154 135 96 130 133 -68 96 -219 return
          </CharString>
          <CharString index="101">
            vlineto
            17 -5 23 -1 17 6 rrcurveto
            return
          </CharString>
          <CharString index="102">
            -21 150 139 hstem
            return
          </CharString>
          <CharString index="103">
            12 -2 13 -1 12 3 return
          </CharString>
          <CharString index="104">
            221 vlineto
            -60 callsubr
            -221 hlineto
            return
          </CharString>
          <CharString index="105">
            40 38 -29 -100 13 hvcurveto
            54 -1 28 4 17 18 rrcurveto
            return
          </CharString>
          <CharString index="106">
            -74 callsubr
            -31 -5 -31 -4 -31 -4 rrcurveto
            return
          </CharString>
          <CharString index="107">
            15 -4 rrcurveto
            return
          </CharString>
          <CharString index="108">
            2 -8 -14 2 -13 hhcurveto
            -13 -14 -2 -2 -8 hvcurveto
            return
          </CharString>
          <CharString index="109">
            hvcurveto
            4 callgsubr
            14 -3 13 return
          </CharString>
          <CharString index="110">
            4 38 vhcurveto
            return
          </CharString>
          <CharString index="111">
            163 rmoveto
            -68 callsubr
            -83 -12 return
          </CharString>
          <CharString index="112">
            854 131 hstem
            return
          </CharString>
          <CharString index="113">
            639 125 hstem
            return
          </CharString>
          <CharString index="114">
            -97 -47 87 150 153 65 97 76 return
          </CharString>
          <CharString index="115">
            -171 51 454 31 454 51 hstem
            return
          </CharString>
          <CharString index="116">
            -46 callgsubr
            352 43 370 42 return
          </CharString>
          <CharString index="117">
            -30 62 30 -17 39 34 31 vlineto
            1 -3 return
          </CharString>
          <CharString index="118">
            69 -15 69 hstemhm
            hintmask 10000000
            return
          </CharString>
          <CharString index="119">
            126 63 131 vstem
            return
          </CharString>
          <CharString index="120">
            365 50 hstem
            return
          </CharString>
          <CharString index="121">
            11 -22 14 -8 16 -6 rrcurveto
            49 49 return
          </CharString>
          <CharString index="122">
            -252 -21 253 54 460 60 return
          </CharString>
          <CharString index="123">
            hhcurveto
            hintmask 10110000
            return
          </CharString>
          <CharString index="124">
            816 rmoveto
            return
          </CharString>
          <CharString index="125">
            -2 rmoveto
            1 28 29 0 29 hhcurveto
            return
          </CharString>
          <CharString index="126">
            42 204 54 162 36 hstemhm
            return
          </CharString>
          <CharString index="127">
            12 -86 callgsubr
            return
          </CharString>
          <CharString index="128">
            -136 -68 -21 892 -20 hstem
            return
          </CharString>
          <CharString index="129">
            43 266 rmoveto
            return
          </CharString>
        <CharString name=".notdef">
          -638 endchar
        </CharString>
        <CharString name=".null">
          -638 endchar
        </CharString>
        <CharString name="A">
          -107 callgsubr
          endchar
        </CharString>
        <CharString name="AE">
          362 0 51 -33 -21 296 50 50 53 299 51 hstemhm
          464 97 hintmask 10111100
          464 293 rmoveto
          -293 480 vlineto
          -8 callsubr
          -300 344 hlineto
          161 -4 -104 callsubr
          -478 hlineto
          -438 -750 -76 -12 -59 callgsubr
          1 42 36 1 35 hhcurveto
          hintmask 01111100
          35 34 -102 callgsubr
          -81 10 rcurveline
          140 249 rlineto
          259 458 rmoveto
          -408 -231 vlineto
          endchar
        </CharString>
        <CharString name="Aacute">
          -107 callgsubr
          185 275 -77 callgsubr
        </CharString>
        <CharString name="Acircumflex">
          -107 callgsubr
          29 267 -91 callgsubr
        </CharString>
        <CharString name="Adieresis">
          102 5 callsubr
          197 12 callgsubr
          -98 callsubr
          -149 266 -94 callgsubr
        </CharString>
        <CharString name="Agrave">
          -107 callgsubr
          44 177 -73 callgsubr
        </CharString>
        <CharString name="Aring">
          102 855 3 callgsubr
          hstem
          261 3 callgsubr
          vstem
          -98 callsubr
          -82 289 -69 callgsubr
        </CharString>
        <CharString name="Atilde">
          102 13 callgsubr
          -98 callsubr
          104 264 -84 callsubr
        </CharString>
        <CharString name="B">
          64 -13 46 -33 33 -13 -21 407 50 309 42 -8 -26 callgsubr
          256 116 -78 78 -78 119 hintmask 0011011100000000
          -27 callsubr
          -11 -59 callgsubr
          hintmask 0101101100000000
          13 -38 callsubr
          hhcurveto
          hintmask 1001101001000000
          101 87 -13 84 hhcurveto
          199 98 91 144 108 -75 89 -128 19 hvcurveto
          3 vlineto
          hintmask 1001101010000000
          112 33 50 56 83 vvcurveto
          109 -76 85 -183 vhcurveto
          -27 hlineto
          hintmask 1001011010000000
          -69 -110 -8 -95 hhcurveto
          268 -393 rmoveto
          141 73 -87 -98 -122 -44 -66 -169 hvcurveto
          -32 2 -21 4 -28 5 rrcurveto
          362 vlineto
          hintmask 1001101100000000
          87 359 rmoveto
          98 71 -54 -104 -98 -52 -53 -126 hvcurveto
          -78 177 hlineto
          37 0 50 3 callsubr
          6 28 27 1 28 hhcurveto
          endchar
        </CharString>
        <CharString name="C">
          123 -20 66 725 45 hstem
          53 124 vstem
          696 148 rmoveto
          -59 -64 -95 -43 -98 7 callgsubr
          101 164 172 52 59 -6 -34 52 hvcurveto
          -31 callgsubr
          -76 -78 19 -86 hhcurveto
          -268 -141 2 callgsubr
          113 93 59 71 76 hvcurveto
          -5 15 -6 13 -15 10 rrcurveto
          endchar
        </CharString>
        <CharString name="Ccedilla">
          123 271 -26 67 203 endchar
        </CharString>
        <CharString name="D">
          197 -4 48 -24 -21 762 48 -37 callgsubr
          422 117 hintmask 01111000
          46 18 callsubr
          hintmask 10111000
          -50 callgsubr
          -589 vlineto
          -68 callsubr
          -83 -12 -59 callgsubr
          334 46 rmoveto
          -66 -41 3 -33 hhcurveto
          586 vlineto
          -39 callsubr
          endchar
        </CharString>
        <CharString name="E">
          -34 callsubr
          3 -26 callgsubr
          hintmask 01110100
          -68 callgsubr
          hintmask 10110100
          -105 callgsubr
          hintmask 10101100
          -58 callsubr
          endchar
        </CharString>
        <CharString name="Eacute">
          -103 callsubr
          379 197 -77 callgsubr
        </CharString>
        <CharString name="Ecircumflex">
          -103 callsubr
          239 189 -91 callgsubr
        </CharString>
        <CharString name="Edieresis">
          41 5 callsubr
          198 12 callgsubr
          -68 callgsubr
          -103 callgsubr
          62 188 -94 callgsubr
        </CharString>
        <CharString name="Egrave">
          -103 callsubr
          248 99 -73 callgsubr
        </CharString>
        <CharString name="Eth">
          198 -4 48 -24 -21 388 50 324 48 hstemhm
          134 107 422 117 hintmask 01111100
          47 18 callsubr
          hintmask 10111100
          -50 callgsubr
          -315 -87 -50 87 -19 callsubr
          401 439 rmoveto
          -207 196 hlineto
          -39 callsubr
          -66 -41 3 -33 hhcurveto
          340 207 vlineto
          endchar
        </CharString>
        <CharString name="Euro">
          66 -20 66 261 50 60 50 299 47 hstem
          80 126 vstem
          29 467 rmoveto
          -13 -17 -4 -16 3 -17 rrcurveto
          65 -22 hlineto
          -38 -51 vlineto
          -15 -18 -2 -16 3 -16 rrcurveto
          70 hlineto
          -187 22 97 -140 195 hhcurveto
          89 61 23 66 59 hvcurveto
          -2 18 -6 13 -18 7 rrcurveto
          -44 -52 -50 -17 -74 hhcurveto
          -103 -73 87 174 -21 hvcurveto
          197 hlineto
          13 14 4 16 -3 20 rrcurveto
          -215 hlineto
          -1 17 0 19 19 vvcurveto
          5 232 vlineto
          11 16 5 16 -2 18 rrcurveto
          -244 hlineto
          179 13 82 120 130 hhcurveto
          39 43 -7 -18 47 hvcurveto
          -38 -167 rlineto
          -1 5 10 -1 10 hhcurveto
          12 13 1 1 7 hvcurveto
          70 192 rlineto
          33 -72 -69 14 -64 hhcurveto
          -189 -142 -148 -198 -28 hvcurveto
          endchar
        </CharString>
        <CharString name="F">
          -16 -46 callgsubr
          397 54 294 51 3 -26 callgsubr
          hintmask 01110100
          133 4 callsubr
          -59 callgsubr
          1 42 51 1 50 hhcurveto
          hintmask 10110100
          -33 callsubr
          355 vlineto
          161 -3 -97 callgsubr
          295 -76 callgsubr
          -404 hlineto
          hintmask 01101100
          -58 callsubr
          endchar
        </CharString>
        <CharString name="G">
          208 -20 66 725 45 hstem
          52 124 453 107 vstem
          689 -18 rmoveto
          -4 callsubr
          10 110 rcurveline
          101 -100 callgsubr
          -213 vlineto
          -32 -56 -67 -21 -68 7 callgsubr
          107 164 172 55 67 -6 -34 55 hvcurveto
          -31 callgsubr
          -79 -85 19 -90 hhcurveto
          -268 -147 2 callgsubr
          85 76 38 46 63 hvcurveto
          endchar
        </CharString>
        <CharString name="H">
          237 -46 callgsubr
          387 50 362 -26 callgsubr
          394 107 hintmask 01111100
          741 44 rmoveto
          589 -100 callgsubr
          -220 vlineto
          -95 -394 196 -100 callgsubr
          -29 callsubr
          hintmask 10111100
          -87 callgsubr
          343 394 -19 callsubr
          hintmask 01111100
          -53 callgsubr
          hintmask 10111100
          48 47 -102 callgsubr
          rrcurveto
          endchar
        </CharString>
        <CharString name="I">
          -264 20 callgsubr
          133 107 hintmask 01110000
          133 752 rmoveto
          -29 callsubr
          hintmask 10110000
          -96 callgsubr
          endchar
        </CharString>
        <CharString name="Iacute">
          -264 -46 callgsubr
          -37 callgsubr
          hintmask 01100000
          133 752 rmoveto
          -29 callsubr
          hintmask 10100000
          -96 callgsubr
          301 188 -77 callgsubr
        </CharString>
        <CharString name="Icircumflex">
          -264 -46 callgsubr
          -37 callgsubr
          hintmask 01100000
          133 752 rmoveto
          -29 callsubr
          hintmask 10100000
          -96 callgsubr
          141 180 -91 callgsubr
        </CharString>
        <CharString name="Idieresis">
          -264 855 131 hstem
          19 12 callgsubr
          133 752 rmoveto
          -29 callsubr
          -96 callgsubr
          -36 179 -94 callgsubr
        </CharString>
        <CharString name="Igrave">
          -264 -46 callgsubr
          -37 callgsubr
          hintmask 01100000
          133 752 rmoveto
          -29 callsubr
          hintmask 10100000
          -96 callgsubr
          150 90 -73 callgsubr
        </CharString>
        <CharString name="J">
          -276 -229 41 -41 143 885 -20 hstemhm
          128 107 hintmask 10110000
          235 633 rmoveto
          -24 callgsubr
          83 13 -86 callgsubr
          -2 -48 -57 -1 -56 hhcurveto
          -44 -43 1 2 -37 -90 callsubr
          91 -10 rcurveline
          -702 vlineto
          -150 -13 -88 -63 -27 -6 21 75 -7 vhcurveto
          hintmask 01110000
          4 -18 -17 2 -14 hhcurveto
          -30 -19 -9 -18 -5 hvcurveto
          -86 1 42 -30 91 hhcurveto
          106 86 117 190 hvcurveto
          endchar
        </CharString>
        <CharString name="K">
          104 20 callgsubr
          133 107 hintmask 01110000
          366 453 rmoveto
          172 208 37 44 14 14 40 31 rlinecurve
          67 12 -49 callgsubr
          -36 -1 -37 hhcurveto
          -37 -37 -57 callgsubr
          -253 -315 rlineto
          -53 196 hlineto
          -107 callsubr
          81 -10 rcurveline
          -29 callsubr
          hintmask 10110000
          -87 callgsubr
          342 57 vlineto
          168 -231 32 -45 27 -36 12 -25 rlinecurve
          -82 9 callgsubr
          42 1 43 hhcurveto
          hintmask 01110000
          66 70 -2 -1 50 hvcurveto
          2 12 0 -40 callsubr
          -78 8 rcurveline
          -19 19 -46 56 -19 27 rrcurveto
          endchar
        </CharString>
        <CharString name="L">
          41 0 51 -33 -21 802 -26 callgsubr
          hintmask 10110000
          189 hmoveto
          464 -11 callgsubr
          -330 582 hlineto
          -107 callsubr
          81 -10 rcurveline
          -590 vlineto
          -38 -1 -42 -3 -38 vhcurveto
          -83 -11 rlineto
          hintmask 01110000
          -95 callgsubr
          rrcurveto
          endchar
        </CharString>
        <CharString name="M">
          412 -9 -21 51 -21 798 -20 hstem
          134 55 619 107 vstem
          808 4 callsubr
          -5 -10 2 -13 3 -13 rlinecurve
          -53 callgsubr
          -87 callgsubr
          589 vlineto
          -96 callsubr
          -1 -49 -54 -2 -54 hhcurveto
          -23 -24 0 1 -23 hvcurveto
          -257 -658 -251 658 rlineto
          -220 hlineto
          -4 -12 0 -10 4 -12 83 -30 callgsubr
          -589 -31 callsubr
          2 41 40 1 40 hhcurveto
          40 39 -1 -1 43 hvcurveto
          -84 callgsubr
          -93 -20 callgsubr
          550 vlineto
          291 -743 rlineto
          26 hlineto
          302 768 rlineto
          endchar
        </CharString>
        <CharString name="N">
          242 -46 callgsubr
          796 -20 hstemhm
          135 55 507 55 hintmask 10111000
          697 268 rmoveto
          -39 2 -37 3 -36 vhcurveto
          -20 33 -19 37 -18 24 -401 546 rcurveline
          -196 hlineto
          -4 -12 0 -10 4 -12 83 -30 callgsubr
          -589 -31 callsubr
          hintmask 01111000
          -71 callgsubr
          endchar
        </CharString>
        <CharString name="Ntilde">
          242 13 callgsubr
          697 268 rmoveto
          -39 2 -37 3 -36 vhcurveto
          -20 33 -19 37 -18 24 -401 546 rcurveline
          -196 hlineto
          -4 -12 0 -10 4 -12 83 -30 callgsubr
          -589 -31 callsubr
          -71 callgsubr
          -179 308 -84 callsubr
        </CharString>
        <CharString name="O">
          -101 callsubr
          endchar
        </CharString>
        <CharString name="OE">
          644 -20 55 -35 35 -35 51 341 54 299 51 -35 55 hstemhm
          52 120 574 97 hintmask 10010111
          -78 callgsubr
          121 103 56 88 70 hvcurveto
          hintmask 01011011
          -124 480 vlineto
          -63 callgsubr
          hintmask 00111011
          -104 callgsubr
          -450 -113 hlineto
          hintmask 10010111
          79 -65 -99 54 -130 hhcurveto
          -1 -781 -73 callsubr
          206 89 -163 -186 -196 -90 -181 -205 hvcurveto
          endchar
        </CharString>
        <CharString name="Oacute">
          -101 callsubr
          159 914 -77 callgsubr
        </CharString>
        <CharString name="Ocircumflex">
          -101 callsubr
          9 906 -91 callgsubr
        </CharString>
        <CharString name="Odieresis">
          5 callsubr
          286 12 callgsubr
          -106 callgsubr
          -168 905 -94 callgsubr
        </CharString>
        <CharString name="Ograve">
          -101 callsubr
          28 816 -73 callgsubr
        </CharString>
        <CharString name="Oslash">
          -63 -21 64 55 726 55 65 -20 hstem
          -32 callsubr
          vstem
          746 881 rmoveto
          -79 -121 rlineto
          35 -58 -72 21 -85 hhcurveto
          -54 callsubr
          -124 50 -127 103 -78 hvcurveto
          -93 -141 rlineto
          55 hlineto
          76 116 rlineto
          -32 57 69 -20 83 hhcurveto
          -49 callsubr
          123 -49 125 -100 78 hvcurveto
          97 147 rlineto
          -629 -470 rmoveto
          186 86 164 193 74 58 -23 -39 44 vhcurveto
          -375 -570 rlineto
          -55 71 -25 103 108 vvcurveto
          279 -376 rmoveto
          -69 -55 22 38 -43 hvcurveto
          375 570 rlineto
          50 -65 24 -91 -97 vvcurveto
          -196 -86 -181 -196 vhcurveto
          endchar
        </CharString>
        <CharString name="Otilde">
          13 callgsubr
          -106 callgsubr
          73 903 -84 callsubr
        </CharString>
        <CharString name="P">
          23 9 callsubr
          -37 callgsubr
          271 121 hintmask 01111100
          -41 callsubr
          hintmask 10111100
          -33 callsubr
          314 vlineto
          -5 35 36 -1 32 -7 callsubr
          -138 -68 -9 1 -87 hvcurveto
          -16 callsubr
          145 46 -75 -107 -81 -34 -107 -147 22 callgsubr
        </CharString>
        <CharString name="Q">
          -235 74 54 142 -55 55 726 55 hstemhm
          -32 callsubr
          hintmask 11011100
          189 -117 rmoveto
          8 -12 10 -9 13 -7 rrcurveto
          28 39 34 10 32 hhcurveto
          29 26 -9 -11 27 hvcurveto
          177 -85 rlineto
          -16 39 36 -7 31 hhcurveto
          80 56 32 47 37 hvcurveto
          -12 14 -7 7 -12 6 rrcurveto
          -21 -30 -31 -11 -35 hhcurveto
          -38 -38 9 16 -37 hvcurveto
          -176 74 -22 9 -20 7 -19 4 rlinecurve
          hintmask 10111100
          9 20 20 13 26 hhcurveto
          -71 callsubr
          -54 callsubr
          -175 100 -179 203 -42 hvcurveto
          -115 -53 -23 -15 -28 -39 rrcurveto
          262 152 -93 callsubr
          endchar
        </CharString>
        <CharString name="R">
          82 -46 callgsubr
          765 42 -37 callgsubr
          266 121 hintmask 01111000
          -41 callsubr
          hintmask 10111000
          -33 callsubr
          324 vlineto
          -4 35 36 -2 32 hhcurveto
          14 hlineto
          19 -22 19 -30 19 -36 rrcurveto
          hintmask 01111000
          151 -274 rlineto
          170 hlineto
          2 12 1 -40 callsubr
          -72 10 rcurveline
          -20 19 -17 43 -162 274 rrcurveto
          94 34 69 72 89 vvcurveto
          133 -67 96 -215 -138 -68 -9 1 -87 vhcurveto
          -16 callsubr
          141 45 -75 -107 -77 -33 -101 -143 22 callgsubr
        </CharString>
        <CharString name="S">
          15 -20 49 743 44 hstem
          87 109 272 118 vstem
          163 69 rmoveto
          -32 162 -12 3 -33 -1 -12 -2 rlinecurve
          -192 vlineto
          -41 73 65 -18 92 hhcurveto
          168 114 92 136 65 -37 56 -85 63 hvcurveto
          -204 146 rlineto
          -42 31 -22 34 53 vvcurveto
          80 59 36 67 47 51 -11 -30 45 vhcurveto
          -31 callgsubr
          -76 -68 19 -86 hhcurveto
          -118 -119 -61 -124 -86 40 -56 53 -36 hvcurveto
          224 -162 rlineto
          61 -52 3 -28 -43 vvcurveto
          -68 -41 -71 -101 -60 -54 6 34 -49 vhcurveto
          endchar
        </CharString>
        <CharString name="T">
          108 -46 callgsubr
          745 51 hstemhm
          320 107 hintmask 01110000
          27 796 rmoveto
          -8 callgsubr
          210 -582 hlineto
          -68 callsubr
          -93 -12 -59 callgsubr
          1 42 56 1 55 16 callsubr
          55 55 -102 callgsubr
          -101 10 rcurveline
          701 208 -76 callsubr
          endchar
        </CharString>
        <CharString name="Thorn">
          7 0 235 -217 -21 195 43 370 42 -42 190 4 -26 callgsubr
          252 121 hintmask 10010111
          133 520 rmoveto
          -357 vlineto
          -95 callsubr
          hintmask 01110111
          -87 callgsubr
          152 vlineto
          -3 29 28 -1 27 -7 callsubr
          -33 -28 -1 -1 -25 hvcurveto
          34 0 37 4 34 vhcurveto
          -83 callgsubr
          hintmask 10001011
          -59 callsubr
          hintmask 10010111
          -48 -48 -57 callgsubr
          107 -515 rmoveto
          363 vlineto
          2 17 25 3 19 hhcurveto
          145 46 -75 -107 -81 -34 -107 -147 -20 -26 0 2 -25 hvcurveto
          endchar
        </CharString>
        <CharString name="U">
          176 -20 64 755 -20 -106 callsubr
          endchar
        </CharString>
        <CharString name="Uacute">
          176 -20 64 -106 callsubr
          -59 197 -77 callgsubr
        </CharString>
        <CharString name="Ucircumflex">
          176 -20 64 -106 callsubr
          -188 189 -91 callgsubr
        </CharString>
        <CharString name="Udieresis">
          176 5 callsubr
          274 12 callgsubr
          644 254 rmoveto
          -142 -44 -68 -156 -159 -65 57 150 vhcurveto
          382 -100 callgsubr
          -501 vlineto
          -179 98 -92 200 222 61 103 177 5 vhcurveto
          373 vlineto
          -24 callgsubr
          63 12 rlineto
          36 vlineto
          -2 -43 -29 -1 -30 hhcurveto
          -30 -30 -28 callgsubr
          -37 vlineto
          81 -10 rlineto
          -373 188 -94 callgsubr
        </CharString>
        <CharString name="Ugrave">
          176 -20 64 -106 callsubr
          -169 99 -73 callgsubr
        </CharString>
        <CharString name="V">
          107 -9 -21 829 -20 hstem
          399 122 rmoveto
          -10 41 -13 44 -13 38 -183 505 rcurveline
          -21 callsubr
          -50 -1 -50 hhcurveto
          -50 -51 -57 callgsubr
          296 -782 rlineto
          35 hlineto
          258 691 12 32 11 31 17 26 rlinecurve
          66 12 -49 callgsubr
          -33 -1 -32 hhcurveto
          -33 -32 -57 callgsubr
          -182 -507 -14 -39 -15 -44 -10 -40 rlinecurve
          endchar
        </CharString>
        <CharString name="W">
          461 -10 -21 22 -21 829 -20 hstemhm
          hintmask 01100000
          788 146 rmoveto
          -12 58 -17 56 -17 55 -142 435 rcurveline
          -21 callsubr
          -49 -1 -49 hhcurveto
          -49 -49 -57 callgsubr
          48 -141 -110 -304 -21 -57 -20 -56 -17 -56 rlinecurve
          -2 hlineto
          -13 57 -15 58 -15 54 -132 443 rcurveline
          -21 callsubr
          -51 -1 -51 hhcurveto
          -51 -51 -57 callgsubr
          259 -782 rlineto
          hintmask 10100000
          27 -1 210 561 rlineto
          hintmask 01100000
          192 -560 rlineto
          26 hlineto
          227 691 12 32 11 31 17 26 rlinecurve
          66 12 rlineto
          36 vlineto
          -2 -43 -33 -1 -32 hhcurveto
          -33 -32 -28 callgsubr
          -37 vlineto
          81 -10 -139 -440 -15 -49 -19 -58 -14 -59 rlinecurve
          endchar
        </CharString>
        <CharString name="X">
          156 20 callgsubr
          hintmask 01100000
          724 43 rmoveto
          -282 403 163 215 29 38 21 22 41 29 rlinecurve
          63 12 -49 callgsubr
          -36 -1 -37 hhcurveto
          -37 -37 -57 callgsubr
          -197 -263 -134 193 -13 17 -11 16 -15 28 rlinecurve
          99 19 -49 callgsubr
          -59 -1 -60 hhcurveto
          -60 -60 -57 callgsubr
          247 -359 -192 -258 -26 -35 -28 -28 -27 -26 rlinecurve
          -73 -12 -59 callgsubr
          1 42 37 1 37 hhcurveto
          hintmask 10100000
          36 36 -102 callgsubr
          -81 10 rcurveline
          228 303 133 -192 21 -29 29 -39 18 -40 rlinecurve
          -102 9 callgsubr
          46 1 49 hhcurveto
          75 80 -2 -1 50 hvcurveto
          2 12 0 -40 callsubr
          rrcurveto
          endchar
        </CharString>
        <CharString name="Y">
          69 20 callgsubr
          297 107 hintmask 01110000
          246 625 rmoveto
          -20 35 -17 39 -18 44 98 19 rcurveline
          -84 callgsubr
          rrcurveto
          -45 callsubr
          239 -408 rlineto
          -181 vlineto
          -95 callsubr
          hintmask 10110000
          -87 callgsubr
          297 vlineto
          196 320 24 42 20 22 22 25 rlinecurve
          62 12 -49 callgsubr
          -35 -1 -34 hhcurveto
          -35 -34 -57 callgsubr
          -209 -353 rlineto
          endchar
        </CharString>
        <CharString name="Yacute">
          69 -46 callgsubr
          hstemhm
          297 107 hintmask 01100000
          246 625 rmoveto
          -20 35 -17 39 -18 44 98 19 rcurveline
          -84 callgsubr
          rrcurveto
          -45 callsubr
          239 -408 rlineto
          -181 vlineto
          -95 callsubr
          hintmask 10100000
          -87 callgsubr
          297 vlineto
          196 320 24 42 20 22 22 25 rlinecurve
          62 12 -49 callgsubr
          -35 -1 -34 hhcurveto
          -35 -34 -57 callgsubr
          -209 -353 rlineto
          166 550 -77 callgsubr
        </CharString>
        <CharString name="Z">
          41 0 51 694 51 hstem
          172 51 rmoveto
          439 694 4 17 1 18 -5 16 rlinecurve
          -544 hlineto
          -8 callgsubr
          339 hlineto
          -445 -694 -6 -17 2 -17 4 -17 rlinecurve
          580 -11 callgsubr
          endchar
        </CharString>
        <CharString name="a">
          -85 callgsubr
          endchar
        </CharString>
        <CharString name="aacute">
          -85 callgsubr
          60 404 -72 callsubr
        </CharString>
        <CharString name="acircumflex">
          -104 90 33 97 195 endchar
        </CharString>
        <CharString name="acute">
          -404 591 -21 hstem
          240 724 -72 callsubr
        </CharString>
        <CharString name="acute.case">
          -386 779 -21 hstem
          245 856 -77 callgsubr
        </CharString>
        <CharString name="adieresis">
          -104 67 33 97 200 endchar
        </CharString>
        <CharString name="ae">
          194 -20 48 238 36 -20 40 56 -14 callsubr
          96 243 104 hintmask 11010111
          348 302 -55 callsubr
          89 73 36 62 47 vhcurveto
          -64 42 69 -34 92 -23 callsubr
          hintmask 10110111
          -29 callgsubr
          -61 -58 -20 -42 -44 vhcurveto
          46 -26 -50 16 -78 hhcurveto
          -113 -93 -54 -94 hvcurveto
          -47 callsubr
          hintmask 11001111
          -47 callgsubr
          -213 -220 rmoveto
          92 84 34 129 7 vhcurveto
          -113 vlineto
          -51 -63 -64 -71 -54 -25 25 70 vhcurveto
          438 375 rmoveto
          82 32 -72 -105 hvcurveto
          hintmask 10110111
          -18 callsubr
        </CharString>
        <CharString name="agrave">
          -104 184 33 97 193 endchar
        </CharString>
        <CharString name="ampersand">
          168 -14 46 -46 161 -141 -21 347 36 405 33 hstemhm
          44 119 -43 97 201 99 hintmask 10011011
          693 332 rmoveto
          -84 callgsubr
          rrcurveto
          -2 -43 -22 -1 -23 hhcurveto
          -23 -23 1 3 -41 -90 callsubr
          rrcurveto
          62 hlineto
          -9 -46 -15 -45 -21 -41 -186 240 rcurveline
          152 110 16 53 52 vvcurveto
          95 -65 56 -133 -131 -68 -81 -94 -43 22 -56 48 -62 vhcurveto
          44 -58 rlineto
          hintmask 01011101
          -129 -79 -61 -60 -105 vvcurveto
          -120 100 -62 117 100 77 33 55 58 vhcurveto
          4 -5 rlineto
          hintmask 00111101
          -54 41 60 -30 55 hhcurveto
          91 58 83 31 hvcurveto
          hintmask 01011101
          19 -9 29 -32 -27 -24 -14 -26 -21 vhcurveto
          15 -28 10 -20 -14 vvcurveto
          -11 -8 -6 -9 -24 -38 40 86 -66 vhcurveto
          -8 9 29 50 21 58 13 61 rlinecurve
          hintmask 10011101
          -336 -300 rmoveto
          -72 -56 42 110 53 13 73 85 67 hvcurveto
          209 -270 rlineto
          -46 -45 -59 -29 -75 hhcurveto
          hintmask 10011011
          -74 642 rmoveto
          60 42 39 60 75 24 -54 -80 -58 -42 -69 -52 -41 vhcurveto
          -48 63 rlineto
          -42 53 -17 48 39 vvcurveto
          endchar
        </CharString>
        <CharString name="aring">
          -104 595 3 callgsubr
          hstem
          156 3 callgsubr
          vstem
          -97 callsubr
          -47 callgsubr
          -192 350 -69 callgsubr
        </CharString>
        <CharString name="asciicircum">
          -36 449 -21 307 -20 hstem
          301 642 rmoveto
          219 -214 11 3 13 14 3 11 rlinecurve
          -206 276 rlineto
          2 -14 -13 1 -13 hhcurveto
          -13 -14 -1 -2 -13 hvcurveto
          -206 -276 3 -11 13 -14 11 -3 rlinecurve
          endchar
        </CharString>
        <CharString name="asciitilde">
          24 383 78 24 78 hstem
          475 461 rmoveto
          -99 -19 102 -130 hhcurveto
          -83 -65 -67 -49 -37 hvcurveto
          14 callsubr
          27 25 41 101 15 -102 134 -25 callgsubr
        </CharString>
        <CharString name="asterisk">
          -210 448 -21 315 -20 hstem
          190 48 vstem
          242 735 rmoveto
          4 -9 -9 3 -10 hhcurveto
          -10 -10 -3 -4 -8 hvcurveto
          8 -134 -124 49 -14 -13 -7 -21 3 -19 rlinecurve
          130 -34 -85 -102 8 -18 18 -13 19 -3 rlinecurve
          72 113 71 -112 20 2 18 13 9 17 rlinecurve
          -86 103 129 33 4 20 -7 21 -13 14 rlinecurve
          -125 -51 rlineto
          endchar
        </CharString>
        <CharString name="at">
          364 -157 46 214 52 -52 66 382 40 154 46 hstemhm
          55 51 192 89 526 52 hintmask 11011111
          562 196 rmoveto
          -73 -6 16 -20 39 hhcurveto
          199 155 134 205 211 -166 138 -248 -284 -212 -183 -295 -315 232 -155 253 109 58 23 44 75 hvcurveto
          -17 33 rlineto
          -36 -65 -79 -18 -69 hhcurveto
          -282 -164 182 241 247 190 186 257 203 157 -101 -199 -198 -136 -92 -121 hvcurveto
          63 414 rlineto
          18 -50 -34 4 -52 hhcurveto
          -167 -118 -157 -194 -100 37 -37 54 72 60 44 49 41 hvcurveto
          hintmask 10111111
          -123 -27 rmoveto
          -48 -4 39 53 133 58 157 123 22 8 -1 -3 21 hvcurveto
          -44 -295 rlineto
          -59 -58 -31 -24 -47 hhcurveto
          endchar
        </CharString>
        <CharString name="atilde">
          -104 633 11 callsubr
          135 133 rmoveto
          hintmask 01000000
          -58 callgsubr
          hintmask 10000000
          -99 callsubr
          -47 callgsubr
          -6 349 -52 callsubr
        </CharString>
        <CharString name="b">
          -35 -20 55 459 60 262 -20 hstem
          77 95 286 101 vstem
          172 471 rmoveto
          163 vlineto
          -54 callgsubr
          -59 -81 callgsubr
          82 -10 rcurveline
          -655 vlineto
          10 -110 12 -3 8 1 12 2 rlinecurve
          21 68 rlineto
          -50 40 60 -20 54 hhcurveto
          144 121 110 194 164 -76 106 -130 -74 -59 -35 -48 -48 hvcurveto
          144 -436 rmoveto
          -65 -34 17 52 -45 hvcurveto
          306 vlineto
          55 42 61 29 44 hhcurveto
          76 63 -70 -137 hvcurveto
          1 -11 0 -11 -10 vvcurveto
          -146 -65 -74 -78 vhcurveto
          endchar
        </CharString>
        <CharString name="backslash">
          21 callsubr
          403 -85 rmoveto
          -3 9 12 -1 13 hhcurveto
          14 14 1 3 8 hvcurveto
          -395 884 rlineto
          1 callsubr
          endchar
        </CharString>
        <CharString name="bar">
          -408 90 57 vstem
          147 913 rmoveto
          -16 4 -23 0 -18 -4 rrcurveto
          -1051 -6 callsubr
          endchar
        </CharString>
        <CharString name="braceleft">
          -232 8 callsubr
          156 87 cntrmask 11100000
          243 172 rmoveto
          105 -11 50 -55 22 vhcurveto
          55 22 11 51 105 vvcurveto
          147 vlineto
          126 12 19 111 vhcurveto
          6 16 2 16 -8 19 rrcurveto
          -182 -28 -34 -159 hvcurveto
          -147 vlineto
          -127 -10 -38 -93 vhcurveto
          -4 -9 0 -11 4 -11 rrcurveto
          7 hlineto
          86 -2 10 -39 -124 vvcurveto
          -147 vlineto
          -159 28 -34 182 vhcurveto
          7 17 0 17 -7 17 rrcurveto
          -111 -12 19 126 hvcurveto
          endchar
        </CharString>
        <CharString name="braceright">
          -212 8 callsubr
          216 87 cntrmask 11100000
          216 25 rmoveto
          -126 -12 -19 -111 vhcurveto
          -7 -17 0 -17 7 -17 rrcurveto
          182 28 34 159 hvcurveto
          147 vlineto
          124 10 39 86 2 vhcurveto
          7 hlineto
          4 11 0 11 -4 9 rrcurveto
          -93 -10 38 127 hvcurveto
          147 vlineto
          159 -28 34 -182 vhcurveto
          -8 -19 2 -16 6 -16 rrcurveto
          111 12 -19 -126 hvcurveto
          -147 vlineto
          -105 11 -51 55 -22 vhcurveto
          -55 -22 -11 -50 -105 vvcurveto
          endchar
        </CharString>
        <CharString name="bracketleft">
          15 callgsubr
          89 87 vstem
          89 900 rmoveto
          -1082 210 vlineto
          5 17 1 17 -6 17 rrcurveto
          -123 980 123 hlineto
          5 17 1 17 -6 17 rrcurveto
          endchar
        </CharString>
        <CharString name="bracketright">
          15 callgsubr
          138 87 vstem
          15 900 rmoveto
          -6 -17 1 -17 5 -17 rrcurveto
          123 -980 -123 hlineto
          -6 -17 1 -17 5 -17 rrcurveto
          210 1082 hlineto
          endchar
        </CharString>
        <CharString name="brokenbar">
          -398 94 57 vstem
          151 783 rmoveto
          -15 callsubr
          -123 vmoveto
          -15 callsubr
          endchar
        </CharString>
        <CharString name="bullet">
          -160 255 -21 258 -20 hstem
          108 365 rmoveto
          -73 58 -58 73 73 58 58 73 73 -60 54 -73 -73 -56 -54 -73 vhcurveto
          endchar
        </CharString>
        <CharString name="c">
          -126 -20 47 358 169 -40 40 hstemhm
          45 102 hintmask 10110000
          478 -9 callgsubr
          -30 callsubr
          7 callsubr
          hvcurveto
          hintmask 11010000
          -2 callsubr
          endchar
        </CharString>
        <CharString name="caron">
          -286 593 -21 198 -20 hstem
          142 579 rmoveto
          -5 12 8 -2 8 hhcurveto
          8 7 2 5 13 hvcurveto
          99 174 -14 10 -22 5 -9 2 rlinecurve
          -82 -112 -81 112 -9 -2 -23 -5 -14 -10 rlinecurve
          endchar
        </CharString>
        <CharString name="caron.case">
          -294 789 -21 173 -20 hstem
          332 917 rmoveto
          -7 9 -9 7 -14 8 -128 -94 rcurveline
          -127 94 -14 -8 -9 -7 -7 -9 rlinecurve
          119 -144 rlineto
          -4 10 15 -1 15 hhcurveto
          15 14 1 4 8 hvcurveto
          endchar
        </CharString>
        <CharString name="ccedilla">
          -107 -183 104 -57 -20 hstemhm
          183 67 hintmask 10100000
          483 -9 callgsubr
          vhcurveto
          hintmask 01100000
          -30 callsubr
          hintmask 10100000
          7 callsubr
          -2 callsubr
          -300 -589 -7 callgsubr
          -12 callsubr
          -24 callsubr
        </CharString>
        <CharString name="cedilla">
          -295 -173 104 -57 -20 hstemhm
          61 67 hintmask 10100000
          61 -173 -7 callgsubr
          hintmask 01100000
          -12 callsubr
          hintmask 10100000
          -24 callsubr
        </CharString>
        <CharString name="cent">
          -89 -20 45 489 40 hstem
          52 107 vstem
          366 668 rmoveto
          -17 7 -16 0 -17 -7 -10 -114 rcurveline
          -1 hlineto
          -119 -134 -94 -192 -171 75 -98 128 -16 hvcurveto
          -9 -111 16 -5 16 -1 18 6 rlinecurve
          9 108 76 3 64 26 50 49 rlinecurve
          -51 callsubr
          -32 -44 -59 -32 -59 hhcurveto
          -1 hlineto
          42 472 25 -18 22 -35 9 -59 rlinecurve
          54 -1 32 4 17 18 rrcurveto
          86 -74 45 -81 13 vhcurveto
          -196 -284 rmoveto
          153 61 95 80 vhcurveto
          2 hlineto
          -42 -479 rlineto
          -64 29 -37 84 118 vvcurveto
          endchar
        </CharString>
        <CharString name="circumflex">
          -287 608 -21 105 -20 hstem
          43 587 -44 callsubr
        </CharString>
        <CharString name="circumflex.case">
          -283 784 -21 hstem
          181 848 -91 callgsubr
        </CharString>
        <CharString name="colon">
          -382 -13 124 265 124 hstem
          65 126 vstem
          65 50 -18 callgsubr
          389 vmoveto
          -74 callgsubr
        </CharString>
        <CharString name="comma">
          -411 -125 -21 133 124 hstem
          50 126 vstem
          58 -41 callgsubr
          endchar
        </CharString>
        <CharString name="copyright">
          256 -15 39 115 48 391 39 117 39 hstem
          53 40 136 91 482 40 vstem
          586 245 rmoveto
          -34 -37 -43 -24 -56 hhcurveto
          -77 -53 70 129 112 58 80 78 30 24 -3 -20 29 hvcurveto
          19 -82 14 -4 14 0 14 4 rlinecurve
          110 vlineto
          23 -43 -45 11 -49 hhcurveto
          -153 -81 -123 -118 -116 69 -121 152 65 53 34 40 44 hvcurveto
          -3 9 -15 17 -8 6 rrcurveto
          256 134 -66 callgsubr
          endchar
        </CharString>
        <CharString name="currency">
          -53 148 56 -52 -21 382 55 19 -20 hstemhm
          82 55 311 55 hintmask 10011100
          503 359 rmoveto
          48 -17 45 -28 36 vhcurveto
          63 63 -9 16 -10 12 -16 8 rlinecurve
          -64 -64 rlineto
          hintmask 01101100
          28 -36 -45 17 -48 hhcurveto
          -49 -46 -17 -27 -35 hvcurveto
          -62 62 -17 -8 -12 -10 -7 -17 rlinecurve
          62 -63 rlineto
          -28 -35 -17 -45 -49 vvcurveto
          -50 17 -45 28 -36 vhcurveto
          -61 -61 7 -20 14 -8 15 -8 rlinecurve
          61 61 rlineto
          hintmask 10101100
          -28 35 46 -16 49 hhcurveto
          48 45 17 28 36 hvcurveto
          61 -61 19 7 12 10 4 19 rlinecurve
          -60 60 rlineto
          28 36 17 45 50 vvcurveto
          -55 hmoveto
          -86 -70 -69 -85 -86 -70 69 86 85 70 69 86 85 70 -69 -85 vhcurveto
          endchar
        </CharString>
        <CharString name="d">
          -13 -21 60 461 54 262 -20 hstem
          44 102 285 95 vstem
          526 142 rmoveto
          492 vlineto
          -80 callgsubr
          -134 vlineto
          28 -37 -55 11 -42 hhcurveto
          -132 -121 -115 -194 -164 87 -102 114 79 72 38 52 45 hvcurveto
          5 -64 -70 callsubr
          -237 358 rmoveto
          51 55 -15 -41 36 hvcurveto
          -320 vlineto
          -56 -42 -66 -29 -44 hhcurveto
          -76 -57 66 137 164 58 94 85 hvcurveto
          endchar
        </CharString>
        <CharString name="degree">
          -256 439 58 236 58 hstem
          15 64 224 64 vstem
          367 617 rmoveto
          93 -79 81 -97 -94 -82 -75 -100 -95 78 -82 99 95 80 79 99 vhcurveto
          -64 1 rmoveto
          -64 -49 -57 -62 -64 -49 59 60 63 53 54 59 63 49 -57 -58 vhcurveto
          endchar
        </CharString>
        <CharString name="dieresis">
          -238 606 125 hstem
          43 12 callsubr
          43 669 -89 callsubr
        </CharString>
        <CharString name="dieresis.case">
          -262 761 131 hstem
          20 12 callgsubr
          17 847 -94 callgsubr
        </CharString>
        <CharString name="divide">
          -19 141 124 100 50 100 124 hstem
          245 126 cntrmask 11100000
          555 -23 callgsubr
          181 -161 -18 callgsubr
          374 vmoveto
          -74 callgsubr
        </CharString>
        <CharString name="dollar">
          23 -20 49 hstem
          77 109 119 50 143 118 vstem
          305 -85 rmoveto
          15 -5 15 -1 20 6 rrcurveto
          67 vlineto
          157 13 104 87 126 vvcurveto
          65 -31 66 -91 54 vhcurveto
          -139 85 rlineto
          294 vlineto
          43 -2 46 -12 41 -27 32 -167 rcurveline
          12 -3 33 1 12 2 rrcurveto
          192 vlineto
          -73 39 -65 19 -81 2 rrcurveto
          85 vlineto
          -15 7 -15 2 -20 -9 rrcurveto
          -87 vlineto
          -119 -11 -109 -60 -112 vvcurveto
          -86 38 -59 55 -33 vhcurveto
          135 -85 rlineto
          -339 vlineto
          -52 2 -47 9 -43 29 -32 162 rcurveline
          -12 3 -33 -1 -12 -2 rrcurveto
          -192 vlineto
          73 -39 67 -19 91 -1 rrcurveto
          104 323 rmoveto
          58 -34 31 -27 -74 vvcurveto
          -64 -42 -67 -101 -8 vhcurveto
          308 vlineto
          -169 319 rmoveto
          67 53 37 66 9 vhcurveto
          -260 vlineto
          -55 34 rlineto
          -44 27 -20 33 53 vvcurveto
          endchar
        </CharString>
        <CharString name="dotlessi">
          -328 -28 callsubr
          555 -20 hstemhm
          113 95 hintmask 01110000
          208 372 rmoveto
          -80 callgsubr
          -213 -80 callsubr
          hintmask 10110000
          44 -88 callsubr
          endchar
        </CharString>
        <CharString name="e">
          -103 -13 callgsubr
          45 102 233 102 vstem
          461 -105 callsubr
          endchar
        </CharString>
        <CharString name="eacute">
          -75 callsubr
          145 243 -72 callsubr
        </CharString>
        <CharString name="ecircumflex">
          -98 641 -21 105 -20 hstem
          -102 callsubr
          -130 106 -44 callsubr
        </CharString>
        <CharString name="edieresis">
          -98 6 callsubr
          135 12 callsubr
          -102 callsubr
          -153 188 -89 callsubr
        </CharString>
        <CharString name="egrave">
          -75 callsubr
          -6 89 -22 callsubr
        </CharString>
        <CharString name="eight">
          -32 -20 42 754 43 hstemhm
          45 109 -86 106 248 104 -70 70 -70 104 hintmask 11100010
          45 197 rmoveto
          -125 86 -92 165 178 86 118 109 114 -74 54 -83 43 vhcurveto
          hintmask 11010100
          71 46 52 62 94 vvcurveto
          113 -74 86 -153 -137 -94 -101 -112 -102 55 -59 68 -44 vhcurveto
          hintmask 11100100
          -85 -39 -61 -70 -95 vvcurveto
          411 -26 rmoveto
          -90 -48 -59 -109 -101 -44 82 90 71 29 74 45 40 vhcurveto
          107 -60 121 -38 -110 vvcurveto
          hintmask 11011000
          -282 461 rmoveto
          106 55 38 70 83 40 -72 -106 -59 -20 -61 -38 -40 vhcurveto
          -95 46 -95 40 108 vvcurveto
          endchar
        </CharString>
        <CharString name="emdash">
          133 357 50 hstem
          701 357 -40 callgsubr
        </CharString>
        <CharString name="endash">
          -67 357 50 hstem
          501 357 -60 callgsubr
          -431 -56 callsubr
        </CharString>
        <CharString name="equal">
          -86 287 50 88 50 hstem
          472 425 -60 callgsubr
          -391 -65 callgsubr
          391 -138 -60 callgsubr
          -391 -56 callsubr
        </CharString>
        <CharString name="eth">
          -32 -20 42 460 42 321 -20 hstem
          45 106 300 106 vstem
          190 646 rmoveto
          -11 2 16 -16 16 hhcurveto
          77 80 59 -50 49 -74 28 -100 rlinecurve
          28 -42 -51 21 -54 hhcurveto
          -160 -85 -119 -139 -43 callsubr
          6 0 6 -1 6 hvcurveto
          -5 189 -89 169 -124 95 74 76 rcurveline
          -4 14 -11 16 -19 2 -78 -82 rcurveline
          -54 33 -60 19 -62 2 -5 -13 -1 -13 6 -13 49 -7 48 -17 44 -28 rrcurveto
          -114 -460 rmoveto
          154 73 62 76 76 75 -62 -154 -42 callgsubr
          endchar
        </CharString>
        <CharString name="exclam">
          -370 -13 124 700 -20 hstemhm
          73 126 -104 76 hintmask 11010000
          114 189 rmoveto
          12 -3 20 -1 12 4 26 610 rcurveline
          8 -14 -17 4 -18 hhcurveto
          -19 -20 -4 -8 -19 hvcurveto
          hintmask 11100000
          -4 -749 rmoveto
          -74 callgsubr
        </CharString>
        <CharString name="exclamdown">
          -397 -257 -21 700 124 hstemhm
          55 126 -98 75 hintmask 11010000
          140 344 rmoveto
          -12 3 -20 1 -12 -4 -26 -610 rcurveline
          -8 14 17 -4 18 hhcurveto
          19 20 4 8 19 hvcurveto
          hintmask 11100000
          4 749 -22 callgsubr
        </CharString>
        <CharString name="f">
          -261 -28 callsubr
          783 34 hstemhm
          111 95 hintmask 01110000
          282 17 callsubr
          -113 -58 -134 -113 hvcurveto
          -68 -71 vlineto
          -4 -13 0 -13 4 -13 71 -11 rcurveline
          -277 -14 callgsubr
          1 42 49 1 47 16 callsubr
          47 66 -79 callsubr
          4 13 0 14 -4 13 -121 20 rcurveline
          385 vlineto
          141 21 -42 callsubr
          13 rlinecurve
          -141 hlineto
          217 19 64 50 vhcurveto
          hintmask 01110000
          24 19 -21 -84 8 hvcurveto
          54 -1 29 4 17 18 rrcurveto
          93 -66 25 -78 vhcurveto
          endchar
        </CharString>
        <CharString name="five">
          -84 -20 42 -42 172 313 53 178 100 hstemhm
          86 62 233 117 hintmask 10111100
          221 697 rmoveto
          142 -1 35 -2 44 -5 30 -6 rlinecurve
          -1 32 -1 58 23 vvcurveto
          -249 hlineto
          -135 -340 hlineto
          6 35 30 3 28 hhcurveto
          152 50 -88 -129 -130 -27 -96 -104 hvcurveto
          hintmask 01111100
          -62 -42 18 112 -21 16 callgsubr
          98 -47 118 175 85 113 164 150 -79 111 -204 -21 -22 -2 -2 -24 vhcurveto
          1 183 rlineto
          endchar
        </CharString>
        <CharString name="foundryicon">
          418 138 59 -18 33 -1 29 11 33 1 31 hstemhm
          51 38 -38 107 136 170 -93 93 12 90 23 35 75 36 28 36 23 170 -89 89 -33 33 hintmask 1011110101111010
          1007 282 rmoveto
          1 -4 -2 1 -5 hhcurveto
          -7 -7 -4 -6 -5 hvcurveto
          6 -8 -11 4 -12 hhcurveto
          -27 -16 -16 -21 -12 4 -10 10 -6 hvcurveto
          -9 -8 -5 -10 -12 vvcurveto
          -8 3 -9 7 -5 vhcurveto
          hintmask 1011110101111001
          46 -29 27 hlineto
          2 5 4 8 10 vvcurveto
          25 -14 11 -25 vhcurveto
          -18 hlineto
          hintmask 0101110101111100
          15 vlineto
          hintmask 1011110101111100
          -1 3 4 0 5 hhcurveto
          31 14 17 18 1 0 2 -1 2 hvcurveto
          16 hlineto
          -739 hmoveto
          31 -43 -31 9 vlineto
          -11 -42 -5 24 -14 49 rlineto
          -38 -31 10 hlineto
          24 -69 rlineto
          14 hlineto
          -9 -4 -7 -2 -10 hhcurveto
          -17 -26 hlineto
          -4 4 11 -3 11 hhcurveto
          19 16 8 29 8 hvcurveto
          hintmask 0101101101111100
          -87 37 rmoveto
          -32 hlineto
          hintmask 1011110101111100
          -25 -12 13 24 21 10 15 19 3 3 0 -1 3 hvcurveto
          -15 vlineto
          hintmask 0101101101111100
          31 40 hlineto
          4 -13 -14 3 -12 hhcurveto
          -45 -23 -28 -43 -41 25 -25 41 15 15 3 5 11 hvcurveto
          590 -8 rmoveto
          32 19 20 33 33 -19 19 -31 -31 -19 -20 -33 -33 18 -19 31 hvcurveto
          -264 98 rmoveto
          -26 25 vlineto
          17 5 -5 -5 hvcurveto
          hintmask 1011110101111100
          -1 -16 vlineto
          -28 -11 -12 -18 hvcurveto
          hintmask 0101110011111100
          -20 15 -11 19 9 9 2 6 7 vhcurveto
          -5 4 7 -2 11 hhcurveto
          7 7 1 4 6 hvcurveto
          27 -11 34 vlineto
          24 -15 14 -31 -13 -11 -3 -4 -12 vhcurveto
          -52 -65 rmoveto
          -13 -9 3 9 -3 hvcurveto
          55 hlineto
          1 7 1 6 5 vvcurveto
          24 -17 18 -27 -33 -16 -22 -32 -32 18 -19 35 12 14 2 5 11 vhcurveto
          26 vlineto
          361 39 rmoveto
          -39 -9 10 callsubr
          -5 1 -4 -19 callgsubr
          hintmask 0101110101111100
          -517 hmoveto
          -39 -10 10 callsubr
          -4 1 -5 -19 callgsubr
          307 -43 rmoveto
          -19 9 -9 18 8 7 1 3 7 vhcurveto
          28 -14 104 -47 -31 12 vlineto
          62 -86 rmoveto
          -10 7 -9 13 14 8 9 10 11 -8 9 -14 -13 -7 -9 -11 vhcurveto
          98 7 rmoveto
          -9 -5 7 19 17 5 7 9 9 5 -7 -17 -19 -5 -7 -9 hvcurveto
          187 41 rmoveto
          10 5 5 7 6 4 -5 -10 -10 -4 -5 -6 -7 -5 5 10 vhcurveto
          -416 -43 rmoveto
          -6 -4 3 6 5 4 4 9 hvcurveto
          8 -15 hlineto
          -3 -4 -3 0 -4 hhcurveto
          -101 54 rmoveto
          9 3 -6 -10 hvcurveto
          -25 hlineto
          11 2 4 5 7 hhcurveto
          endchar
        </CharString>
        <CharString name="four">
          -24 -28 callsubr
          199 71 543 -20 hstemhm
          348 102 -102 205 hintmask 01111000
          348 560 rmoveto
          -291 -265 vlineto
          225 314 46 79 2 -2 rlineto
          94 146 rmoveto
          -4 3 -4 2 -4 1 -49 -5 rcurveline
          -373 -538 rlineto
          -27 4 -23 6 -21 vhcurveto
          322 -24 hlineto
          -70 callgsubr
          -99 -11 rlineto
          -2 -7 -1 -6 -7 vvcurveto
          -6 1 -7 2 -6 vhcurveto
          1 42 64 -10 callsubr
          hintmask 10110100
          44 70 -79 callsubr
          1 7 1 7 8 vvcurveto
          6 -1 6 -1 6 vhcurveto
          hintmask 01111000
          -101 15 rlineto
          147 107 vlineto
          23 1 29 1 32 vhcurveto
          -30 -6 -44 -5 -35 -2 rrcurveto
          endchar
        </CharString>
        <CharString name="foursuperior">
          -245 321 178 -161 -21 137 45 322 -20 hstemhm
          223 82 hintmask 10011000
          220 364 -34 callgsubr
          hintmask 01111000
          -33 callgsubr
          -88 callgsubr
          endchar
        </CharString>
        <CharString name="fraction">
          -247 -8 -21 hstem
          422 796 -67 callgsubr
        </CharString>
        <CharString name="g">
          -114 -263 48 396 44 289 40 -40 140 hstemhm
          26 76 -54 90 240 91 -74 128 -95 81 hintmask 1110100010000000
          120 -11 rmoveto
          -51 -12 -43 -46 -58 vvcurveto
          -81 78 -55 138 161 106 71 136 75 -40 50 -79 10 vhcurveto
          -249 25 34 89 rlineto
          -8 24 26 -4 31 hhcurveto
          hintmask 1110101000000000
          109 104 76 108 53 -20 42 -30 30 hvcurveto
          12 32 31 40 57 5 rrcurveto
          hintmask 1101100100000000
          3 18 1 14 12 vvcurveto
          27 -8 12 -18 4 vhcurveto
          -71 -4 -28 -58 -3 -80 rrcurveto
          hintmask 1110010010000000
          28 -40 -50 14 -49 hhcurveto
          -102 -106 -70 -119 -56 28 -65 65 -36 hvcurveto
          -67 -111 rlineto
          -33 28 -49 44 -6 vhcurveto
          187 -17 rlineto
          81 -7 14 -36 -63 vvcurveto
          -66 -76 -35 -92 vhcurveto
          hintmask 1110101000000000
          -93 -65 41 65 38 11 25 22 18 hvcurveto
          -4 8 -5 6 -6 3 rrcurveto
          hintmask 1110011000000000
          18 376 rmoveto
          84 50 65 69 73 48 -65 -84 -76 -48 -64 -73 -75 -44 66 74 vhcurveto
          endchar
        </CharString>
        <CharString name="germandbls">
          -33 -17 34 759 40 hstemhm
          104 95 219 97 -53 104 hintmask 11110000
          27 -3 rmoveto
          2 62 61 2 62 hhcurveto
          -8 40 -5 64 36 vvcurveto
          360 vlineto
          217 32 58 71 71 45 -36 -107 -102 -42 -59 -74 -3 vhcurveto
          -7 -17 0 -20 7 -12 rrcurveto
          hintmask 11101000
          104 -18 56 -52 -130 vvcurveto
          -120 -8 -83 -61 -17 -34 15 61 -6 vhcurveto
          -29 2 -27 -7 -21 -16 rrcurveto
          -63 55 -26 65 93 94 60 182 120 -72 87 -126 11 vhcurveto
          4 vlineto
          hintmask 11110000
          102 12 45 94 91 vvcurveto
          110 -95 62 -107 -120 -89 -73 -174 vhcurveto
          -395 -14 callgsubr
          endchar
        </CharString>
        <CharString name="grave">
          -417 591 -21 hstem
          73 570 -22 callsubr
        </CharString>
        <CharString name="grave.case">
          -386 779 -21 hstem
          167 758 -73 callgsubr
        </CharString>
        <CharString name="greater">
          19 callgsubr
          82 184 rmoveto
          1 callgsubr
          589 257 3 19 2 19 -5 22 rlinecurve
          -589 257 rlineto
          1 callgsubr
          506 -222 rlineto
          endchar
        </CharString>
        <CharString name="guillemotleft">
          -123 -46 callsubr
          68 186 rmoveto
          126 177 -3 10 -7 7 -11 3 rlinecurve
          -197 -188 rlineto
          -19 vlineto
          197 -187 11 3 7 7 3 10 rlinecurve
          endchar
        </CharString>
        <CharString name="guillemotright">
          -123 -4 callgsubr
          245 61 rmoveto
          3 -11 8 -7 11 -3 208 197 rcurveline
          -1 callgsubr
          133 -186 rlineto
          -327 -177 rmoveto
          3 -10 7 -7 11 -3 197 187 rcurveline
          19 vlineto
          -197 188 -11 -3 -7 -7 -3 -10 rlinecurve
          126 -177 rlineto
          endchar
        </CharString>
        <CharString name="guilsinglleft">
          -320 -46 callsubr
          endchar
        </CharString>
        <CharString name="guilsinglright">
          -320 -4 callgsubr
          181 247 rmoveto
          -133 -186 3 -11 8 -7 11 -3 rlinecurve
          208 197 rlineto
          -1 callgsubr
          endchar
        </CharString>
        <CharString name="h">
          -17 -28 callsubr
          493 55 269 -20 hstemhm
          102 94 234 94 hintmask 01111100
          102 649 rmoveto
          -475 vlineto
          -41 -1 -45 -3 -41 vhcurveto
          -79 -11 -4 -13 0 -13 4 -13 rlinecurve
          -50 callsubr
          332 vlineto
          73 45 60 36 48 hhcurveto
          63 18 -43 -89 hvcurveto
          -186 -101 callgsubr
          hintmask 01111100
          -50 callsubr
          359 vlineto
          110 -81 27 -69 -71 -62 -40 -62 -45 vhcurveto
          189 vlineto
          -54 callgsubr
          -58 -81 callgsubr
          -16 callgsubr
          3 -32 0 -29 -37 vvcurveto
          endchar
        </CharString>
        <CharString name="hyphen">
          -35 callsubr
        </CharString>
        <CharString name="i">
          -72 callgsubr
          -146 678 -45 callgsubr
        </CharString>
        <CharString name="iacute">
          -72 callgsubr
          84 706 -72 callsubr
        </CharString>
        <CharString name="icircumflex">
          -328 -46 33 245 195 endchar
        </CharString>
        <CharString name="idieresis">
          -328 6 callsubr
          -26 12 callsubr
          208 372 rmoveto
          -80 callgsubr
          -213 -80 callsubr
          44 -88 callsubr
          -234 651 -89 callsubr
        </CharString>
        <CharString name="igrave">
          -328 68 33 245 193 endchar
        </CharString>
        <CharString name="j">
          -360 -290 35 -35 109 hstemhm
          104 95 hintmask 10100000
          104 -43 rmoveto
          -155 -12 -57 -32 -17 -7 27 44 -7 vhcurveto
          hintmask 01100000
          2 -10 -10 1 -9 hhcurveto
          -29 -23 -11 -23 -16 hvcurveto
          -50 29 -25 82 114 42 148 152 vhcurveto
          362 vlineto
          -54 callgsubr
          -69 -81 callgsubr
          89 -10 rcurveline
          3 -32 0 -29 -37 vvcurveto
          -51 342 -45 callgsubr
        </CharString>
        <CharString name="k">
          -40 -28 callsubr
          22 -21 816 -20 hstemhm
          102 94 hintmask 00111000
          207 288 rmoveto
          203 -242 -66 -9 -6 callgsubr
          42 43 1 42 hhcurveto
          42 42 -94 callsubr
          -78 20 rcurveline
          -218 261 177 166 79 14 -42 callsubr
          12 rlinecurve
          -2 -43 -30 -1 -31 hhcurveto
          -31 -31 5 callgsubr
          -12 -1 0 callgsubr
          66 -8 rcurveline
          -220 144 rmoveto
          -54 callgsubr
          -58 -81 callgsubr
          82 -10 rcurveline
          -573 -101 callgsubr
          hintmask 01011000
          -17 callgsubr
          hintmask 10011000
          43 -88 callsubr
          endchar
        </CharString>
        <CharString name="l">
          -339 -28 callsubr
          817 -20 hstemhm
          102 95 hintmask 01110000
          197 634 rmoveto
          -54 callgsubr
          -59 -81 callgsubr
          82 -10 rcurveline
          -573 -80 callsubr
          hintmask 10110000
          44 -88 callsubr
          endchar
        </CharString>
        <CharString name="less">
          19 callgsubr
          121 406 rmoveto
          506 222 -2 callgsubr
          -589 -257 -5 -22 2 -19 3 -19 rlinecurve
          589 -257 -2 callgsubr
          endchar
        </CharString>
        <CharString name="logicalnot">
          15 13 callsubr
          521 50 vstem
          571 415 rmoveto
          11 callgsubr
          441 -211 -5 callgsubr
          endchar
        </CharString>
        <CharString name="m">
          323 10 callgsubr
          94 238 94 233 94 hintmask 01111100
          772 357 rmoveto
          -183 vlineto
          -41 -1 -45 -3 -41 vhcurveto
          -79 -11 -4 -13 0 -13 4 -13 rlinecurve
          -50 callsubr
          356 vlineto
          110 -85 37 -69 -71 -61 -47 -61 -45 vhcurveto
          80 -18 -72 28 -60 hhcurveto
          -71 -62 -47 -62 -45 hvcurveto
          -9 callsubr
          -58 -81 callgsubr
          -16 callgsubr
          2 -11 1 -10 -16 vvcurveto
          -274 -101 callgsubr
          hintmask 01111100
          -50 callsubr
          332 vlineto
          73 45 41 40 63 hhcurveto
          63 26 -50 -89 hvcurveto
          -183 -101 callgsubr
          hintmask 01111100
          -50 callsubr
          340 vlineto
          68 44 53 37 47 hhcurveto
          63 26 -50 -89 hvcurveto
          endchar
        </CharString>
        <CharString name="macron">
          4 728 50 hstem
          637 728 -40 callgsubr
        </CharString>
        <CharString name="minus">
          14 13 callsubr
          572 -23 callgsubr
          endchar
        </CharString>
        <CharString name="mu">
          -77 -290 35 -35 110 160 58 516 -20 hstemhm
          81 65 257 98 -95 95 hintmask 10111100
          416 94 rmoveto
          -46 -1 -21 -4 -19 vhcurveto
          1 -7 3 -6 6 -7 31 5 31 4 31 4 rrcurveto
          -8 40 -5 64 37 vvcurveto
          206 vlineto
          133 1 34 4 19 vhcurveto
          -1 callsubr
          hintmask 01111010
          3 -88 0 -77 -37 vvcurveto
          -201 vlineto
          -69 -47 -48 -31 -57 hhcurveto
          -48 -30 49 80 262 0 79 5 26 hvcurveto
          -1 callsubr
          3 -88 0 -77 -37 vvcurveto
          -329 vlineto
          -152 32 -148 114 82 29 41 50 vhcurveto
          13 -16 -20 6 -24 hhcurveto
          -11 -13 -1 -3 -13 hvcurveto
          hintmask 10111100
          -44 -7 -7 -27 -17 hhcurveto
          -35 -29 57 155 hvcurveto
          53 vlineto
          -20 25 32 -10 32 hhcurveto
          87 46 52 62 48 hvcurveto
          endchar
        </CharString>
        <CharString name="multiply">
          -132 219 -21 384 -20 hstem
          97 581 rmoveto
          -17 -8 -12 -10 -7 -17 155 -156 rcurveline
          -155 -155 7 -20 14 -8 15 -8 rlinecurve
          155 155 157 -156 19 7 12 10 4 19 rlinecurve
          -156 156 156 156 -9 16 -10 12 -16 8 rlinecurve
          -157 -156 rlineto
          endchar
        </CharString>
        <CharString name="n">
          -1 10 callgsubr
          95 238 95 hintmask 01111000
          446 357 rmoveto
          -183 vlineto
          -41 -1 -45 -3 -41 vhcurveto
          -79 -11 -4 -13 0 -13 4 -13 rlinecurve
          -27 callgsubr
          356 vlineto
          100 -53 47 -102 -71 -62 -47 -62 -45 vhcurveto
          58 0 5 5 26 vhcurveto
          -44 callgsubr
          2 -11 1 -10 -16 vvcurveto
          -274 -101 callgsubr
          hintmask 01111000
          -27 callgsubr
          334 vlineto
          70 47 54 41 48 hhcurveto
          63 26 -34 -105 hvcurveto
          endchar
        </CharString>
        <CharString name="nbspace">
          -392 endchar
        </CharString>
        <CharString name="nine">
          -33 -20 46 265 47 436 45 hstemhm
          47 115 283 118 -102 102 hintmask 11110100
          563 452 rmoveto
          181 -57 186 -212 -145 -102 -125 -153 -122 66 -128 161 84 61 37 66 40 vhcurveto
          2 hlineto
          -237 -65 -131 -104 -74 -26 46 92 -16 vhcurveto
          -44 -2 -41 -14 -23 -15 rrcurveto
          -100 14 88 -53 112 hhcurveto
          173 108 161 311 hvcurveto
          -401 85 rmoveto
          141 38 96 89 vhcurveto
          hintmask 11111000
          102 54 -73 -175 -113 -53 -75 -103 -88 -39 97 102 hvcurveto
          endchar
        </CharString>
        <CharString name="noBreak">
          -638 endchar
        </CharString>
        <CharString name="nonmarkingreturn">
          -638 endchar
        </CharString>
        <CharString name="ntilde">
          -1 122 33 110 196 endchar
        </CharString>
        <CharString name="numbersign">
          1 235 50 195 50 hstem
          119 530 rmoveto
          -13 -17 -2 -16 1 -17 rrcurveto
          119 hlineto
          -55 -195 rlineto
          -120 hlineto
          -13 -17 -2 -16 1 -17 rrcurveto
          120 -11 callsubr
          140 -11 callsubr
          122 hlineto
          14 16 5 16 -5 18 rrcurveto
          -122 hlineto
          56 195 rlineto
          122 hlineto
          14 16 5 16 -5 18 rrcurveto
          -122 -12 callgsubr
          -139 -12 callgsubr
          37 -50 rmoveto
          139 hlineto
          -55 -195 rlineto
          -140 hlineto
          endchar
        </CharString>
        <CharString name="o">
          -66 callsubr
          endchar
        </CharString>
        <CharString name="oacute">
          -66 callsubr
          292 491 -72 callsubr
        </CharString>
        <CharString name="ocircumflex">
          -40 123 33 111 195 endchar
        </CharString>
        <CharString name="odieresis">
          -40 100 33 111 200 endchar
        </CharString>
        <CharString name="oe">
          295 -20 48 254 40 190 42 6 callgsubr
          96 243 104 vstem
          22 callsubr
          -164 95 -122 160 79 68 34 56 46 vhcurveto
          -58 42 66 -32 88 -23 callsubr
          -29 callgsubr
          -75 -70 -31 -63 -45 vhcurveto
          57 -45 -67 37 -83 hhcurveto
          -25 callsubr
          hvcurveto
          -63 callsubr
          525 242 rmoveto
          82 32 -72 -105 hvcurveto
          -18 callsubr
        </CharString>
        <CharString name="ograve">
          -40 217 33 111 193 endchar
        </CharString>
        <CharString name="one">
          -186 -28 callsubr
          817 -20 hstemhm
          179 102 hintmask 01110000
          281 654 rmoveto
          19 0 17 14 vvcurveto
          43 0 23 5 26 vhcurveto
          -74 callsubr
          -219 -64 rcurveline
          -26 callsubr
          -22 3 -13 122 13 rcurveline
          -543 vlineto
          -70 callgsubr
          -109 8 callgsubr
          61 1 60 16 callsubr
          60 59 -94 callsubr
          -109 15 rcurveline
          endchar
        </CharString>
        <CharString name="onehalf">
          262 -8 -21 30 78 369 39 330 -20 hstem
          125 82 544 85 vstem
          207 -87 callsubr
          634 -381 -65 callsubr
          81 795 -67 callgsubr
        </CharString>
        <CharString name="onequarter">
          183 -8 -21 30 178 -45 45 638 -20 hstemhm
          125 82 443 82 hintmask 11011100
          207 -87 callsubr
          440 -338 -35 callgsubr
          hintmask 10111100
          -75 callgsubr
        </CharString>
        <CharString name="onesuperior">
          -295 348 -21 490 -20 hstem
          135 82 vstem
          217 -87 callsubr
          endchar
        </CharString>
        <CharString name="ordfeminine">
          -170 351 46 176 34 60 140 -31 31 hstemhm
          47 86 159 75 hintmask 11101100
          133 466 rmoveto
          56 56 45 103 6 vhcurveto
          -110 vlineto
          -38 -34 -45 -28 -31 hhcurveto
          -37 -12 17 52 hvcurveto
          159 141 rmoveto
          -142 -4 -103 -43 -102 vvcurveto
          -63 39 -44 68 57 47 26 49 43 vhcurveto
          4 -55 1 -8 3 -4 4 -4 rlinecurve
          39 6 41 4 40 2 1 10 1 9 -2 11 -63 8 rcurveline
          -2 9 -1 11 14 vvcurveto
          224 vlineto
          111 -41 33 -100 -90 -74 -43 -75 vhcurveto
          -15 4 12 -7 20 hhcurveto
          10 13 2 4 15 hvcurveto
          hintmask 11011100
          79 11 33 24 45 hhcurveto
          49 18 -41 -88 hvcurveto
          endchar
        </CharString>
        <CharString name="ordmasculine">
          -176 351 33 390 33 hstem
          25 83 236 83 vstem
          25 579 rmoveto
          -131 74 -97 126 118 84 97 131 122 -76 106 -126 -126 -74 -106 -122 vhcurveto
          83 hmoveto
          139 57 56 60 60 59 -56 -139 -140 -59 -55 -60 -60 -57 55 140 vhcurveto
          endchar
        </CharString>
        <CharString name="oslash">
          -40 -32 -21 33 42 490 42 40 -20 6 callgsubr
          106 vstem
          403 594 rmoveto
          -21 -54 rlineto
          9 -25 -29 5 -30 hhcurveto
          -25 callsubr
          -115 46 -94 83 -46 hvcurveto
          -23 -64 rlineto
          50 hlineto
          17 45 rlineto
          -8 25 27 -4 30 hhcurveto
          150 107 122 164 107 -48 97 -82 50 hvcurveto
          28 74 rlineto
          -304 -328 rmoveto
          175 73 71 76 21 22 -6 -12 19 vhcurveto
          -160 -423 rlineto
          -31 38 -20 64 93 vvcurveto
          300 hmoveto
          -175 -75 -69 -76 -21 -20 5 11 -19 vhcurveto
          160 422 rlineto
          30 -40 21 -63 -91 vvcurveto
          endchar
        </CharString>
        <CharString name="otilde">
          -40 633 11 callsubr
          22 callsubr
          hintmask 01000000
          -56 callgsubr
          hintmask 10000000
          -63 callsubr
          238 436 -52 callsubr
        </CharString>
        <CharString name="p">
          -7 15 callsubr
          hstem
          101 95 285 106 vstem
          338 -15 callgsubr
          76 57 -66 -137 -178 -58 -79 -85 hvcurveto
          -237 357 rmoveto
          -486 -101 callgsubr
          1 42 49 1 49 hhcurveto
          49 48 -94 callsubr
          -101 15 rcurveline
          245 vlineto
          -31 40 52 -16 42 hhcurveto
          132 125 114 194 164 -91 102 -114 -79 -62 -42 -52 -45 hvcurveto
          33 1 13 4 28 vhcurveto
          -1 8 -3 6 -6 6 -57 -9 -58 -8 -57 -4 -26 callsubr
          -11 3 -14 -16 callgsubr
          3 -27 0 -31 -36 vvcurveto
          endchar
        </CharString>
        <CharString name="paragraph">
          39 9 callsubr
          -8 -20 hstemhm
          36 121 191 68 60 68 hintmask 10101111
          544 756 rmoveto
          71 -13 callsubr
          -35 -35 -1 -39 hhcurveto
          -19 -20 0 1 -21 hvcurveto
          hintmask 10110111
          2 -45 -49 5 -69 hhcurveto
          -187 -60 -96 -133 -130 115 -96 134 20 21 1 4 22 hvcurveto
          -313 -31 callsubr
          hintmask 01110111
          2 73 65 1 67 hhcurveto
          48 49 -1 -1 52 hvcurveto
          2 12 1 12 -3 12 -63 -20 callgsubr
          -246 232 rmoveto
          -96 -45 59 129 107 39 75 112 12 15 -1 -3 8 hvcurveto
          4 -38 1 -53 -37 vvcurveto
          -235 vlineto
          -3 -19 -19 0 -12 hhcurveto
          118 -232 rmoveto
          593 56 vlineto
          4 -38 0 -44 -37 vvcurveto
          -593 -56 vlineto
          -4 38 0 44 37 vvcurveto
          endchar
        </CharString>
        <CharString name="parenleft">
          -335 -161 -21 1082 -20 hstem
          55 91 vstem
          55 359 rmoveto
          -308 81 -135 85 -98 vhcurveto
          15 7 11 11 4 13 rrcurveto
          -69 127 -36 110 273 vvcurveto
          273 36 110 69 127 vhcurveto
          -4 14 -12 11 -14 6 rrcurveto
          -85 -98 -81 -135 -308 vvcurveto
          endchar
        </CharString>
        <CharString name="parenright">
          -384 -161 -21 1082 -20 hstem
          112 91 vstem
          203 359 rmoveto
          308 -81 135 -85 98 vhcurveto
          -14 -6 -12 -11 -4 -14 rrcurveto
          69 -127 36 -110 -273 vvcurveto
          -273 -36 -110 -69 -127 vhcurveto
          4 -13 11 -11 15 -7 rrcurveto
          85 98 81 135 308 vvcurveto
          endchar
        </CharString>
        <CharString name="percent">
          354 -30 38 -16 -21 377 38 2 38 340 38 hstemhm
          66 75 212 75 121 75 212 75 hintmask 1011111110000000
          729 -30 -53 callsubr
          -483 340 -53 callsubr
          450 410 -48 callsubr
          hintmask 0111111110000000
          -51 callgsubr
        </CharString>
        <CharString name="period">
          -412 -13 124 hstem
          50 126 vstem
          50 50 rmoveto
          -74 callgsubr
        </CharString>
        <CharString name="periodcentered">
          -390 237 124 hstem
          61 126 vstem
          61 300 rmoveto
          -74 callgsubr
        </CharString>
        <CharString name="plus">
          -63 13 callsubr
          262 50 vstem
          312 635 21 callgsubr
          -220 -220 vlineto
          -64 callgsubr
          220 -221 -5 callgsubr
          221 -3 callsubr
          endchar
        </CharString>
        <CharString name="plusminus">
          4 95 50 220 50 hstem
          296 50 vstem
          346 585 21 callgsubr
          -170 -220 vlineto
          -64 callgsubr
          220 -171 -5 callgsubr
          171 -3 callsubr
          221 -320 -60 callgsubr
          11 callgsubr
          endchar
        </CharString>
        <CharString name="q">
          -24 -252 -21 253 60 460 54 hstem
          44 106 286 95 vstem
          531 -218 rmoveto
          581 vlineto
          4 64 5 61 16 57 rrcurveto
          5 -11 -31 4 -12 hhcurveto
          -34 -83 rlineto
          55 -34 -64 28 -57 hhcurveto
          -142 -127 -102 -194 -164 96 -114 115 74 59 35 48 48 hvcurveto
          -145 vlineto
          -41 -1 -58 -3 -41 vhcurveto
          -89 8 callgsubr
          47 1 46 hhcurveto
          46 46 -94 callsubr
          rrcurveto
          -313 733 rmoveto
          51 44 -16 -54 42 hvcurveto
          -306 vlineto
          -55 -42 -61 -29 -44 hhcurveto
          -76 -63 78 137 157 64 88 85 hvcurveto
          endchar
        </CharString>
        <CharString name="question">
          -129 -13 124 249 48 230 181 -42 42 hstemhm
          143 126 79 118 hintmask 11101100
          167 163 rmoveto
          21 -8 11 0 21 8 -9 197 rcurveline
          209 16 46 111 100 vvcurveto
          139 -79 93 -160 -99 -93 -48 -112 vhcurveto
          17 -18 32 -4 54 1 rrcurveto
          hintmask 11011100
          102 18 35 37 47 hhcurveto
          74 36 -79 -105 -128 -44 -55 -146 -2 hvcurveto
          -11 hlineto
          -4 -358 rmoveto
          -74 callgsubr
        </CharString>
        <CharString name="questiondown">
          -137 -286 42 -42 181 230 48 249 124 hstemhm
          40 118 79 126 hintmask 01111100
          339 370 rmoveto
          -21 8 -11 0 -21 -8 9 -197 rcurveline
          -209 -16 -46 -111 -100 vvcurveto
          -139 79 -93 160 99 93 48 112 vhcurveto
          -17 18 -32 4 -54 -1 rrcurveto
          hintmask 10111100
          -102 -18 -35 -37 -47 hhcurveto
          -74 -36 79 105 128 44 55 146 2 hvcurveto
          11 hlineto
          4 358 -22 callgsubr
        </CharString>
        <CharString name="quotedbl">
          -247 841 -20 hstem
          79 64 106 64 vstem
          153 800 -43 callgsubr
          189 246 -43 callgsubr
          endchar
        </CharString>
        <CharString name="quotedblbase">
          -190 -127 -5 callsubr
          48 151 49 151 vstem
          57 -148 -69 callsubr
        </CharString>
        <CharString name="quotedblleft">
          -186 562 139 150 -20 hstem
          41 151 49 -48 callgsubr
          200 hmoveto
          -64 callsubr
          endchar
        </CharString>
        <CharString name="quotedblright">
          -186 583 -5 callsubr
          65 151 49 151 vstem
          74 562 -69 callsubr
        </CharString>
        <CharString name="quoteleft">
          -386 562 139 150 -20 hstem
          41 -48 callgsubr
          endchar
        </CharString>
        <CharString name="quoteright">
          -386 583 -5 callsubr
          65 151 vstem
          74 562 rmoveto
          -39 callgsubr
        </CharString>
        <CharString name="quotesinglbase">
          -390 -127 -5 callsubr
          48 151 vstem
          57 -148 rmoveto
          -39 callgsubr
        </CharString>
        <CharString name="quotesingle">
          -417 841 -20 hstem
          78 64 vstem
          152 800 -43 callgsubr
          endchar
        </CharString>
        <CharString name="r">
          -203 -28 callsubr
          458 97 hstemhm
          113 96 hintmask 01110000
          213 534 rmoveto
          -44 callgsubr
          2 -11 1 -10 -16 vvcurveto
          -274 -101 callgsubr
          1 42 52 1 51 16 callsubr
          51 51 -94 callsubr
          -111 15 rcurveline
          151 vlineto
          2 175 rlineto
          56 37 43 24 55 hhcurveto
          21 23 -3 -7 25 hvcurveto
          8 19 6 26 21 vvcurveto
          14 -3 12 -5 8 vhcurveto
          6 -21 -14 1 -20 hhcurveto
          -57 -67 -67 -56 -30 hvcurveto
          endchar
        </CharString>
        <CharString name="registered">
          256 -15 39 133 240 195 28 114 39 hstem
          53 40 204 76 153 77 199 40 vstem
          842 379 -66 callgsubr
          -551 237 rmoveto
          -2 -7 0 -8 2 -7 46 -6 rcurveline
          -337 vlineto
          -22 0 -24 -3 -21 vhcurveto
          -47 -7 -2 -8 0 -6 2 -7 rlinecurve
          1 22 29 0 29 hhcurveto
          36 37 0 -2 26 hvcurveto
          1 7 1 7 -2 8 -53 6 rcurveline
          185 vlineto
          -1 19 18 -2 18 hhcurveto
          10 -13 11 -18 11 -20 87 -157 rcurveline
          110 hlineto
          1 7 1 7 -2 8 -41 5 rcurveline
          -114 192 rlineto
          57 20 44 43 52 vvcurveto
          76 -46 53 -123 -79 -54 -5 1 -50 vhcurveto
          122 -100 rmoveto
          22 1 27 3 23 vhcurveto
          1 9 20 3 13 hhcurveto
          82 25 -39 -62 -44 -19 -50 -81 -15 -20 -1 4 -18 hvcurveto
          endchar
        </CharString>
        <CharString name="ring">
          -380 562 3 callgsubr
          hstem
          20 3 callgsubr
          vstem
          20 670 -69 callgsubr
        </CharString>
        <CharString name="ring.case">
          -386 752 54 110 54 hstem
          17 54 110 54 vstem
          17 861 rmoveto
          -60 49 -49 60 60 49 49 60 60 -49 49 -60 -60 -49 -49 -60 vhcurveto
          54 hmoveto
          30 25 25 30 30 25 -25 -30 -29 -25 -26 -30 -30 -25 26 29 vhcurveto
          endchar
        </CharString>
        <CharString name="s">
          -178 -20 44 493 37 hstem
          55 84 189 90 vstem
          222 24 rmoveto
          -39 -34 7 16 -35 hvcurveto
          -22 99 rlineto
          -47 -128 hlineto
          -26 52 54 -12 61 hhcurveto
          123 83 70 93 91 -73 44 -92 46 hvcurveto
          -80 40 -34 38 48 vvcurveto
          40 22 27 60 33 27 -5 -16 33 vhcurveto
          22 -108 rlineto
          47 128 hlineto
          26 -50 -43 12 -59 hhcurveto
          -95 -81 -41 -100 -86 61 -44 96 -49 hvcurveto
          88 -45 28 -30 -52 vvcurveto
          -38 -27 -45 -79 vhcurveto
          endchar
        </CharString>
        <CharString name="section">
          -101 -106 39 -39 175 593 175 -43 43 hstemhm
          73 66 -44 77 205 77 -44 64 hintmask 10010110
          412 476 rmoveto
          -181 127 rlineto
          -40 31 -19 36 33 vvcurveto
          65 48 26 52 47 37 -29 -100 13 vhcurveto
          hintmask 10100110
          -2 12 13 -1 12 hhcurveto
          31 28 7 17 17 hvcurveto
          104 -98 47 -87 -116 -86 -62 -110 -38 14 -40 36 -37 vhcurveto
          hintmask 10101010
          -43 -38 -29 -56 -55 vvcurveto
          -66 29 -54 51 -41 vhcurveto
          165 -118 rlineto
          40 -32 19 -28 -34 vvcurveto
          -65 -46 -30 -62 -47 -56 33 100 -13 vhcurveto
          hintmask 01101010
          2 -14 -13 1 -11 hhcurveto
          -39 -25 -12 -12 -11 hvcurveto
          -104 117 -47 87 129 81 59 122 37 -16 34 -35 35 vhcurveto
          hintmask 10101001
          45 42 26 60 59 vvcurveto
          51 -20 49 -42 34 vhcurveto
          -202 -154 rmoveto
          -47 35 -24 41 38 vvcurveto
          33 16 33 22 21 vhcurveto
          2 -2 2 -2 3 -1 155 -116 rcurveline
          47 -33 24 -46 -38 vvcurveto
          -33 -16 -27 -21 -19 vhcurveto
          -8 7 rlineto
          endchar
        </CharString>
        <CharString name="semicolon">
          -362 -125 -21 133 124 265 124 hstem
          79 126 vstem
          87 -41 callgsubr
          -13 585 rmoveto
          -74 callgsubr
        </CharString>
        <CharString name="seven">
          -117 21 -21 697 99 hstem
          315 796 rmoveto
          -259 hlineto
          -23 -1 -76 -1 -32 vhcurveto
          28 hlineto
          52 21 83 8 76 3 rrcurveto
          151 hlineto
          -308 -697 rlineto
          122 hlineto
          249 725 rlineto
          27 -4 23 -6 21 vhcurveto
          endchar
        </CharString>
        <CharString name="six">
          -33 -20 45 436 47 265 46 hstemhm
          43 103 -103 119 283 115 hintmask 11110100
          43 347 rmoveto
          -181 64 -186 212 145 96 125 153 122 -66 128 -161 -84 -61 -37 -66 -40 vhcurveto
          -2 hlineto
          237 65 131 104 74 26 -46 -92 16 vhcurveto
          44 2 41 14 23 15 rrcurveto
          100 -14 -88 53 -112 hhcurveto
          -173 -109 -161 -311 hvcurveto
          402 -85 rmoveto
          -129 -25 -108 -102 vhcurveto
          hintmask 11101100
          -102 -54 73 175 113 53 75 103 88 39 -97 -102 hvcurveto
          endchar
        </CharString>
        <CharString name="slash">
          21 callsubr
          494 799 rmoveto
          1 callsubr
          -395 -884 rlineto
          -3 8 14 -1 14 hhcurveto
          13 12 1 3 9 hvcurveto
          endchar
        </CharString>
        <CharString name="space">
          -392 endchar
        </CharString>
        <CharString name="sterling">
          0 -21 78 24 77 201 50 364 43 hstemhm
          136 119 -21 109 hintmask 11110100
          488 57 rmoveto
          -110 -13 94 7 -129 hvcurveto
          22 17 rlineto
          72 53 13 36 83 vvcurveto
          4 0 4 -1 4 vhcurveto
          131 hlineto
          8 17 0 16 -8 17 rrcurveto
          -140 hlineto
          -18 69 -39 84 -14 61 rrcurveto
          hintmask 11111000
          -5 18 -2 18 17 vvcurveto
          55 28 42 66 45 40 -9 -30 38 vhcurveto
          32 -140 rlineto
          57 162 hlineto
          41 -69 -63 19 -78 hhcurveto
          -146 -69 -66 -101 -31 7 -34 12 -37 hvcurveto
          12 -38 20 -49 17 -51 rrcurveto
          -82 hlineto
          -7 -17 0 -16 7 -17 rrcurveto
          97 hlineto
          hintmask 11110100
          9 -33 6 -32 -27 vvcurveto
          -30 -7 -24 -19 -16 vhcurveto
          -84 -68 -38 -24 -30 -34 -21 -28 rlinecurve
          14 callsubr
          32 25 36 109 17 -102 144 -25 callgsubr
        </CharString>
        <CharString name="t">
          -282 -20 61 586 -20 hstem
          94 96 vstem
          190 624 rmoveto
          2 -6 -8 1 -7 hhcurveto
          -8 -8 -1 -2 -6 hvcurveto
          -23 -68 -22 -41 -78 -14 rrcurveto
          -1 -7 -1 -8 -7 vvcurveto
          -6 1 -6 1 -5 vhcurveto
          70 -9 rlineto
          -317 vlineto
          -112 52 -44 61 55 30 18 30 49 vhcurveto
          -2 14 0 10 -12 10 rrcurveto
          -13 -34 -21 -8 -26 hhcurveto
          -37 -19 34 101 hvcurveto
          265 vlineto
          141 21 rlineto
          1 6 1 8 7 vvcurveto
          6 -1 6 -1 6 vhcurveto
          -141 hlineto
          endchar
        </CharString>
        <CharString name="thorn">
          -19 15 callsubr
          262 -20 hstem
          79 95 295 106 vstem
          316 -15 callgsubr
          82 61 -66 -137 -178 -62 -79 -91 hvcurveto
          -237 619 rmoveto
          -748 -101 callgsubr
          1 42 49 1 49 hhcurveto
          49 48 -94 callsubr
          -101 15 rcurveline
          245 vlineto
          -31 40 52 -16 42 hhcurveto
          137 130 114 194 164 -95 102 -120 -79 -62 -42 -52 -45 hvcurveto
          278 vlineto
          22 2 13 3 23 vhcurveto
          -1 8 -3 6 -6 6 -57 -9 -58 -8 -57 -4 -26 callsubr
          -11 3 -14 -16 callgsubr
          3 -27 0 -31 -36 vvcurveto
          endchar
        </CharString>
        <CharString name="three">
          -58 -20 44 -44 172 254 50 171 192 -41 41 hstemhm
          378 112 -81 81 -81 118 hintmask 10110100
          263 24 rmoveto
          hintmask 01110001
          -64 -42 27 101 -19 16 callgsubr
          103 -47 119 172 98 101 146 120 -77 68 -122 19 vhcurveto
          3 vlineto
          hintmask 10110100
          112 33 50 78 87 vvcurveto
          107 -84 77 -134 -122 -86 -59 -110 -17 vhcurveto
          19 -20 26 -4 58 1 rrcurveto
          hintmask 10101100
          94 13 35 57 67 hhcurveto
          60 53 -47 -115 -98 -54 -62 -105 hvcurveto
          -30 hlineto
          -8 -11 2 -31 6 -8 rrcurveto
          hintmask 10110010
          145 75 -80 -105 -134 -64 -63 -82 hvcurveto
          endchar
        </CharString>
        <CharString name="threequarters">
          176 -8 -21 30 178 -45 45 130 19 callsubr
          239 81 -57 57 -57 77 303 82 hintmask 1101110011000000
          189 -36 callgsubr
          hintmask 1101111001000000
          -52 callgsubr
          hintmask 1101110101000000
          14 callgsubr
          451 -307 -35 callgsubr
          hintmask 1011111001000000
          -75 callgsubr
        </CharString>
        <CharString name="threesuperior">
          -243 309 19 callsubr
          247 81 -57 57 -57 77 hintmask 11100100
          197 -36 callgsubr
          hintmask 11110000
          -52 callgsubr
          hintmask 11101000
          14 callgsubr
          endchar
        </CharString>
        <CharString name="tilde">
          -222 600 11 callsubr
          276 669 rmoveto
          hintmask 01000000
          -61 callsubr
          17 -8 -20 callsubr
          14 13 22 hhcurveto
          hintmask 10000000
          -61 callgsubr
          -14 8 -3 callgsubr
          -11 -10 callgsubr
        </CharString>
        <CharString name="tilde.case">
          -255 777 80 -23 80 hstem
          256 845 -84 callsubr
        </CharString>
        <CharString name="two">
          -18 0 99 507 213 -45 45 hstemhm
          406 120 hintmask 11010000
          548 hmoveto
          23 1 58 1 32 vhcurveto
          -30 -6 -44 -6 -35 -2 rrcurveto
          -268 hlineto
          205 157 148 178 175 vvcurveto
          131 -75 79 -158 -115 -81 -57 -130 -30 vhcurveto
          16 -25 43 -3 51 2 rrcurveto
          hintmask 10110000
          124 24 36 44 53 hhcurveto
          79 37 -58 -104 -177 -83 -129 -248 -230 hvcurveto
          -76 vlineto
          endchar
        </CharString>
        <CharString name="twosuperior">
          -215 321 78 369 39 hstem
          266 85 vstem
          356 321 -65 callsubr
          endchar
        </CharString>
        <CharString name="u">
          -23 -20 58 516 -20 -82 callsubr
          endchar
        </CharString>
        <CharString name="uacute">
          -23 -20 58 -82 callsubr
          -87 615 -72 callsubr
        </CharString>
        <CharString name="ucircumflex">
          -23 121 33 117 195 endchar
        </CharString>
        <CharString name="udieresis">
          -23 6 callsubr
          141 126 63 131 -100 callsubr
          -375 560 -89 callsubr
        </CharString>
        <CharString name="ugrave">
          -23 215 33 117 193 endchar
        </CharString>
        <CharString name="underscore">
          -11 -50 50 hstem
          629 -50 -40 callgsubr
        </CharString>
        <CharString name="uni00AD">
          -35 callsubr
        </CharString>
        <CharString name="v">
          -72 -23 -21 581 -20 hstem
          287 -44 rmoveto
          207 530 75 11 -62 callgsubr
          -32 -1 -32 hhcurveto
          -32 -32 5 callgsubr
          -13 -1 0 callgsubr
          78 -8 rcurveline
          -86 -239 -32 callgsubr
          -81 230 rcurveline
          63 -57 callsubr
          207 -529 rlineto
          endchar
        </CharString>
        <CharString name="w">
          200 -23 -21 581 -20 hstem
          562 -44 rmoveto
          203 530 75 11 -62 callgsubr
          -31 -1 -31 hhcurveto
          -31 -31 5 callgsubr
          -13 -1 0 callgsubr
          78 -8 rcurveline
          -87 -236 -32 callgsubr
          -77 227 rcurveline
          77 -57 callsubr
          34 -95 -51 -137 -32 callgsubr
          -80 227 rcurveline
          77 -57 callsubr
          192 -529 rlineto
          21 hlineto
          137 367 132 -367 rlineto
          endchar
        </CharString>
        <CharString name="x">
          -21 -46 callgsubr
          538 -20 hstemhm
          hintmask 01100000
          516 486 rmoveto
          75 11 -62 callgsubr
          -30 -1 -29 hhcurveto
          -30 -29 5 callgsubr
          -13 -1 0 callgsubr
          68 -8 rcurveline
          -136 -173 -130 170 72 13 -42 callsubr
          12 rlinecurve
          -2 -43 -40 -1 -40 hhcurveto
          -40 -41 5 callgsubr
          -12 -1 0 callgsubr
          61 -14 rcurveline
          177 -232 -165 -205 -75 8 callgsubr
          31 1 31 hhcurveto
          hintmask 10100000
          31 30 -94 callsubr
          -68 8 rcurveline
          132 168 126 -165 -73 -83 callsubr
          hintmask 01100000
          1 42 46 1 46 hhcurveto
          hintmask 10100000
          46 45 -94 callsubr
          -84 16 rcurveline
          -174 226 rlineto
          endchar
        </CharString>
        <CharString name="y">
          -47 -260 83 714 -20 hstem
          -81 callsubr
          endchar
        </CharString>
        <CharString name="yacute">
          -47 205 33 121 194 endchar
        </CharString>
        <CharString name="ydieresis">
          -47 6 callsubr
          167 12 callsubr
          -81 callsubr
          -104 699 -89 callsubr
        </CharString>
        <CharString name="yen">
          88 -46 callgsubr
          257 50 50 50 392 -20 hstemhm
          302 107 hintmask 01111100
          598 257 rmoveto
          8 17 0 16 -8 17 rrcurveto
          -189 34 hlineto
          10 16 rlineto
          179 hlineto
          7 17 0 16 -7 17 rrcurveto
          -149 hlineto
          156 254 24 42 20 22 22 25 rlinecurve
          62 12 -49 callgsubr
          -35 -1 -34 hhcurveto
          -35 -34 -57 callgsubr
          -209 -353 -132 226 -26 45 -13 25 -16 48 rlinecurve
          98 19 4 12 0 12 -4 12 rlinecurve
          -45 callsubr
          202 -345 rlineto
          -128 hlineto
          -9 -17 0 -16 9 -17 rrcurveto
          157 hlineto
          8 -13 rlineto
          -37 -165 vlineto
          -9 -17 2 -16 7 -17 rrcurveto
          165 -94 hlineto
          -95 callsubr
          hintmask 10111100
          -87 callgsubr
          213 vlineto
          endchar
        </CharString>
        <CharString name="z">
          -142 0 50 438 46 hstem
          46 34 rmoveto
          -3 -12 0 -12 3 -10 rrcurveto
          397 hlineto
          3 175 -67 callsubr
          rlinecurve
          -39 -125 rlineto
          -201 hlineto
          278 447 3 13 -1 13 -2 11 rlinecurve
          -392 hlineto
          -3 -175 -4 callsubr
          rlinecurve
          41 129 rlineto
          205 hlineto
          endchar
        </CharString>
        <CharString name="zero">
          103 -20 45 749 45 hstem
          55 120 400 120 vstem
          375 -20 rmoveto
          212 108 184 222 251 -109 182 -211 -211 -109 -182 -251 -222 108 -184 212 hvcurveto
          45 vmoveto
          -110 -90 134 252 226 63 137 137 137 63 -137 -226 -252 -90 -134 -110 hvcurveto
          endchar
        </CharString>
      <CharString index="0">
        102 -46 callgsubr
        293 50 482 -20 hstemhm
        hintmask 01110000
        -92 callsubr
        hintmask 10110000
        -99 callgsubr
        hintmask 01110000
        1 42 33 1 33 16 callsubr
        -98 callgsubr
        return
      </CharString>
      <CharString index="1">
        -78 callgsubr
        -71 callsubr
        hvcurveto
        -1 -781 -93 callsubr
        return
      </CharString>
      <CharString index="2">
        143 3 rlineto
        434 hlineto
        1 232 -12 2 -13 1 -12 -3 rlinecurve
        -104 callgsubr
        -404 hlineto
        return
      </CharString>
      <CharString index="3">
        -17 callsubr
        -300 343 hlineto
        161 -3 -104 callsubr
        return
      </CharString>
      <CharString index="4">
        -105 callgsubr
        -58 callsubr
        return
      </CharString>
      <CharString index="5">
        -79 callsubr
        2 12 1 -40 callsubr
        return
      </CharString>
      <CharString index="6">
        vlineto
        -70 callgsubr
        -79 -83 callsubr
        return
      </CharString>
      <CharString index="7">
        vlineto
        -107 callsubr
        81 -10 rcurveline
        return
      </CharString>
      <CharString index="8">
        50 49 -102 callgsubr
        -81 10 rcurveline
        -290 781 rlineto
        -35 hlineto
        -258 -690 -12 -32 -11 -31 -17 -26 rlinecurve
        -66 -12 -59 callgsubr
        return
      </CharString>
      <CharString index="9">
        32 32 -102 callgsubr
        rrcurveto
        141 640 rmoveto
        10 -41 13 -44 13 -38 73 -208 rcurveline
        -224 hlineto
        75 208 14 39 15 44 10 40 rlinecurve
        return
      </CharString>
      <CharString index="10">
        22 -104 12 -4 12 0 12 4 rlinecurve
        -2 42 -1 44 44 vvcurveto
        44 1 43 3 42 vhcurveto
        -67 callsubr
        -23 -98 rcurveline
        -160 -3 rlineto
        return
      </CharString>
      <CharString index="11">
        -87 callgsubr
        -85 callsubr
        rrcurveto
        return
      </CharString>
      <CharString index="12">
        -4 -89 callgsubr
        return
      </CharString>
      <CharString index="13">
        -90 callgsubr
        213 -93 callgsubr
      </CharString>
      <CharString index="14">
        hmoveto
        -36 28 -27 36 35 27 27 36 36 -27 26 -35 -36 -28 -26 -36 vhcurveto
        endchar
      </CharString>
      <CharString index="15">
        -94 callsubr
        -81 15 rcurveline
        return
      </CharString>
      <CharString index="16">
        rmoveto
        139 -85 12 10 7 13 5 10 rlinecurve
        -136 128 -11 2 -31 1 -11 -3 rlinecurve
        -136 -128 5 -10 7 -13 12 -10 rlinecurve
        endchar
      </CharString>
      <CharString index="17">
        rmoveto
        -36 29 -27 36 35 26 27 36 36 -26 26 -35 -36 -29 -26 -36 vhcurveto
        return
      </CharString>
      <CharString index="18">
        -12 0 -12 4 -12 return
      </CharString>
      <CharString index="19">
        85 71 vlineto
        14 0 22 1 20 vhcurveto
        -18 -4 -24 -4 -21 -1 rrcurveto
        -9 216 hlineto
        33 0 38 5 30 vhcurveto
        2 -5 -2 1 -5 hhcurveto
        -52 -2 -210 -318 -1 -17 1 -18 7 -12 rlinecurve
        180 -13 hlineto
        -26 -1 -25 -2 -26 vhcurveto
        -18 308 rmoveto
        21 30 rlineto
        2 hlineto
        -2 -45 rlineto
        -157 vlineto
        -136 -1 rlineto
        return
      </CharString>
      <CharString index="20">
        48 47 -102 callgsubr
        -81 10 rcurveline
        return
      </CharString>
      <CharString index="21">
        -84 callgsubr
        rlinecurve
        return
      </CharString>
      <CharString index="22">
        -104 -20 58 228 36 76 -14 callsubr
        95 hintmask 11101100
        -97 callsubr
        hintmask 11011100
        -47 callgsubr
        return
      </CharString>
      <CharString index="23">
        4 12 0 12 -4 12 return
      </CharString>
      <CharString index="24">
        83 20 callsubr
        return
      </CharString>
      <CharString index="25">
        -4 -13 0 -13 4 -13 rlinecurve
        return
      </CharString>
      <CharString index="26">
        -8 -55 -4 -26 callsubr
        -12 3 -13 return
      </CharString>
      <CharString index="27">
        90 0 46 5 26 vhcurveto
        -44 callgsubr
        3 -32 0 -29 -37 vvcurveto
        return
      </CharString>
      <CharString index="28">
        -35 28 -28 35 35 28 28 35 35 -55 callgsubr
        vhcurveto
        return
      </CharString>
      <CharString index="29">
        452 17 callsubr
        -54 callsubr
        -200 132 -206 268 return
      </CharString>
      <CharString index="30">
        rmoveto
        -19 52 -20 21 -26 -5 -146 -132 rcurveline
        5 -10 11 -14 12 -10 rrcurveto
        endchar
      </CharString>
      <CharString index="31">
        270 -76 callsubr
        return
      </CharString>
      <CharString index="32">
        -88 callgsubr
        119 617 -67 callgsubr
      </CharString>
      <CharString index="33">
        -79 callgsubr
        endchar
      </CharString>
      <CharString index="34">
        rmoveto
        12 10 11 14 5 10 -146 132 rcurveline
        -26 5 -20 -21 -19 -52 rrcurveto
        endchar
      </CharString>
      <CharString index="35">
        -328 -28 callsubr
        hstemhm
        113 95 hintmask 01100000
        208 372 rmoveto
        -80 callgsubr
        -213 -80 callsubr
        hintmask 10100000
        44 -88 callsubr
        return
      </CharString>
      <CharString index="36">
        2 41 40 1 40 hhcurveto
        40 39 -1 -1 43 hvcurveto
        -84 callgsubr
        -93 -20 callgsubr
        430 vlineto
        37 -1 37 -4 37 vhcurveto
        24 -37 24 -36 25 -34 441 -597 rcurveline
        53 749 hlineto
        91 -13 callsubr
        -42 -39 -1 -40 hhcurveto
        -40 -40 1 2 -42 hvcurveto
        -95 callgsubr
        93 -30 callgsubr
        return
      </CharString>
      <CharString index="37">
        -41 -1 -45 -3 -41 vhcurveto
        return
      </CharString>
      <CharString index="38">
        rmoveto
        -60 48 -48 60 60 49 48 60 60 -49 49 -60 -60 -48 -49 -60 vhcurveto
        50 hmoveto
        32 26 27 32 32 27 -27 -32 -32 -27 -26 -32 -32 -26 26 32 vhcurveto
        endchar
      </CharString>
      <CharString index="39">
        133 162 rmoveto
        -38 -1 -42 -3 -38 vhcurveto
        -83 -11 -59 callgsubr
        return
      </CharString>
      <CharString index="40">
        -48 callsubr
        -51 callgsubr
      </CharString>
      <CharString index="41">
        rmoveto
        210 -174 184 -221 -210 -184 -173 -221 -209 173 -185 221 209 186 173 221 vhcurveto
        -40 hmoveto
        -199 -167 -156 -188 -199 -155 167 188 199 165 156 189 199 156 -166 -189 vhcurveto
        return
      </CharString>
      <CharString index="42">
        hlineto
        -64 callgsubr
        return
      </CharString>
      <CharString index="43">
        -9 -19 4 -15 5 -16 rrcurveto
        return
      </CharString>
      <CharString index="44">
        1 232 -67 callsubr
        rlinecurve
        return
      </CharString>
      <CharString index="45">
        -42 callsubr
        13 rlinecurve
        -2 -43 return
      </CharString>
      <CharString index="46">
        53 8 -54 71 hhcurveto
        74 39 84 0 hvcurveto
        8 -9 return
      </CharString>
      <CharString index="47">
        rmoveto
        -60 callsubr
        return
      </CharString>
      <CharString index="48">
        -95 callgsubr
        rlinecurve
        return
      </CharString>
      <CharString index="49">
        92 84 34 129 7 vhcurveto
        -156 vlineto
        -48 -43 -53 -24 -38 hhcurveto
        -54 -25 25 70 hvcurveto
        return
      </CharString>
      <CharString index="50">
        1 3 -41 -90 callsubr
        81 -10 rcurveline
        return
      </CharString>
      <CharString index="51">
        -43 callsubr
        154 -97 134 -160 -25 callsubr
        vhcurveto
        return
      </CharString>
      <CharString index="52">
        -29 26 -35 -35 -27 -26 -35 return
      </CharString>
      <CharString index="53">
        90 0 46 5 26 vhcurveto
        -77 callsubr
        return
      </CharString>
      <CharString index="54">
        1 42 48 1 48 hhcurveto
        return
      </CharString>
      <CharString index="55">
        67 20 28 38 50 vvcurveto
        66 -50 45 -84 -84 -48 -45 -67 vhcurveto
        12 -16 29 -3 30 1 rrcurveto
        64 6 17 30 41 hhcurveto
        44 6 -33 -41 -54 -10 -34 -64 hvcurveto
        -11 hlineto
        -5 -7 1 -42 4 -5 rrcurveto
        12 hlineto
        return
      </CharString>
      <CharString index="56">
        -3 9 11 -1 11 hhcurveto
        10 11 1 3 8 hvcurveto
        endchar
      </CharString>
      <CharString index="57">
        87 90 -3 109 hhcurveto
        237 124 190 232 230 -128 161 -270 hvcurveto
        -47 -123 -11 -112 hhcurveto
        -16 -16 0 1 -15 -90 callsubr
        81 -10 rcurveline
        return
      </CharString>
      <CharString index="58">
        -86 callgsubr
        -2 -43 return
      </CharString>
      <CharString index="59">
        151 vstem
        183 851 rmoveto
        -64 callsubr
        return
      </CharString>
      <CharString index="60">
        100 14 41 30 57 hhcurveto
        61 23 -51 -111 hvcurveto
        return
      </CharString>
      <CharString index="61">
        18 -37 callsubr
        return
      </CharString>
      <CharString index="62">
        rmoveto
        9 -34 37 -20 40 10 19 4 20 7 11 13 11 14 0 22 -4 19 -9 34 -39 20 -39 -10 -17 -4 -20 -8 -10 -12 -13 -15 0 -22 4 -18 rrcurveto
        endchar
      </CharString>
      <CharString index="63">
        -77 callsubr
        -59 -81 callgsubr
        -16 callgsubr
        return
      </CharString>
      <CharString index="64">
        rmoveto
        32 -6 9 -35 -35 -6 -13 -28 vhcurveto
        17 -246 13 -4 20 0 13 4 rlinecurve
        return
      </CharString>
      <CharString index="65">
        -175 -75 -69 -76 -76 -73 69 175 vhcurveto
        return
      </CharString>
      <CharString index="66">
        -146 rmoveto
        61 43 57 52 96 vvcurveto
        40 -55 callgsubr
        -35 28 -28 35 vhcurveto
        3 hlineto
        -17 -55 -42 -33 -29 -16 5 -18 10 -9 15 -2 rrcurveto
        return
      </CharString>
      <CharString index="67">
        -60 callgsubr
        -631 -56 callsubr
      </CharString>
      <CharString index="68">
        -91 callsubr
        endchar
      </CharString>
      <CharString index="69">
        rmoveto
        -91 callsubr
        return
      </CharString>
      <CharString index="70">
        hstemhm
        133 107 return
      </CharString>
      <CharString index="71">
        351 rmoveto
        -35 -24 22 59 -10 hvcurveto
        -32 3 -23 -13 -18 -10 rrcurveto
        -72 68 -31 61 103 61 63 91 65 -35 49 -80 9 vhcurveto
        2 vlineto
        return
      </CharString>
      <CharString index="72">
        -34 callgsubr
        -33 callgsubr
        return
      </CharString>
      <CharString index="73">
        rmoveto
        -70 -7 -6 callgsubr
        27 48 2 28 hhcurveto
        return
      </CharString>
      <CharString index="74">
        28 68 -2 -2 27 2 callsubr
        -71 12 rcurveline
        return
      </CharString>
      <CharString index="75">
        -17 -41 -18 -57 -12 -42 rlinecurve
        -2 hlineto
        -11 44 -19 55 -16 46 return
      </CharString>
      <CharString index="76">
        32 -167 12 -3 33 1 12 2 rlinecurve
        192 vlineto
        41 return
      </CharString>
      <CharString index="77">
        -12 rcurveline
        4 -38 0 -42 -37 vvcurveto
        return
      </CharString>
      <CharString index="78">
        -121 -42 104 150 5 hvcurveto
        326 hlineto
        7 1 7 2 7 6 rrcurveto
        140 -50 123 -159 return
      </CharString>
      <CharString index="79">
        1 3 -41 hvcurveto
        return
      </CharString>
      <CharString index="80">
        -17 callgsubr
        hintmask 10111000
        44 -88 callsubr
        return
      </CharString>
      <CharString index="81">
        -20 -37 callgsubr
        return
      </CharString>
      <CharString index="82">
        hhcurveto
        87 61 61 46 34 hvcurveto
        -6 13 -10 11 -22 5 rrcurveto
        -47 -57 -21 -11 -41 hhcurveto
        endchar
      </CharString>
      <CharString index="83">
        37 0 42 3 callsubr
        return
      </CharString>
      <CharString index="84">
        365 -60 callgsubr
        11 callgsubr
        return
      </CharString>
      <CharString index="85">
        rmoveto
        35 -28 28 -35 -35 -28 -28 -35 -35 29 -26 35 35 27 26 35 vhcurveto
        endchar
      </CharString>
      <CharString index="86">
        534 rmoveto
        -77 callsubr
        return
      </CharString>
      <CharString index="87">
        12 rcurveline
        -4 38 0 42 37 vvcurveto
        return
      </CharString>
      <CharString index="88">
        hhcurveto
        -6 -5 -2 -3 -4 hvcurveto
        -4 -4 -3 -3 -3 -6 -10 16 rcurveline
        -34 -31 hlineto
        return
      </CharString>
      <CharString index="89">
        rmoveto
        -79 callgsubr
        return
      </CharString>
      <CharString index="90">
        1 42 44 -10 callsubr
        return
      </CharString>
      <CharString index="91">
        79 -10 rcurveline
        return
      </CharString>
      <CharString index="92">
        34 rmoveto
        -51 -48 15 49 -43 hvcurveto
        311 vlineto
        56 42 52 29 58 hhcurveto
        return
      </CharString>
      <CharString index="93">
        vlineto
        -41 -1 -41 -3 -40 vhcurveto
        -73 -16 -5 -13 -1 -13 6 -13 rlinecurve
        return
      </CharString>
      <CharString index="94">
        -20 47 255 40 192 40 hstem
        return
      </CharString>
      <CharString index="95">
        hlineto
        76 269 -17 4 -16 0 -17 -4 rlinecurve
        -77 -269 rlineto
        return
      </CharString>
      <CharString index="96">
        hlineto
        -8 callsubr
        return
      </CharString>
      <CharString index="97">
        -6 -22 hhcurveto
        endchar
      </CharString>
      <CharString index="98">
        406 rmoveto
        104 -102 44 -90 -116 -125 -96 -192 return
      </CharString>
      <CharString index="99">
        -1 -232 -4 callsubr
        rlinecurve
        47 181 rlineto
        return
      </CharString>
      <CharString index="100">
        rmoveto
        -5 -15 -1 -16 6 -15 rrcurveto
        -5 24 31 -6 22 hhcurveto
        return
      </CharString>
      <CharString index="101">
        -82 callgsubr
        1 return
      </CharString>
      <CharString index="102">
        hlineto
        18 -9 16 -1 16 10 rrcurveto
        return
      </CharString>
      <CharString index="103">
        61 -21 414 -20 hstem
        return
      </CharString>
      <CharString index="104">
        -14 hhcurveto
        -25 -30 return
      </CharString>
      <CharString index="105">
        rlineto
        3 11 2 12 11 vvcurveto
        10 -2 10 -3 11 vhcurveto
        return
      </CharString>
      <CharString index="106">
        20 vlineto
        -208 197 -11 -3 -8 -7 -3 -11 rlinecurve
        return
      </CharString>
      <CharString index="107">
        -14 3 -13 return
      </CharString>
      <CharString index="108">
        -3 -11 -2 -10 -10 vvcurveto
        -11 2 -12 3 -11 vhcurveto
        return
      </CharString>
      <CharString index="109">
        -216 -205 -203 121 -212 266 return
      </CharString>
      <CharString index="110">
        44 130 44 return
      </CharString>
      <CharString index="111">
        2 13 1 return
      </CharString>
      <CharString index="112">
        -28 callgsubr
        -2 return
      </CharString>
      <CharString index="113">
        hstem
        43 106 300 return
      </CharString>
      <CharString index="114">
        hhcurveto
        -158 -104 153 213 195 return
      </CharString>
      <CharString index="115">
        -11 -6 callgsubr
        42 return
      </CharString>
      <CharString index="116">
        -14 -3 -89 callgsubr
        rlinecurve
        3 34 return
      </CharString>
      <CharString index="117">
        -28 callsubr
        497 58 hstemhm
        113 return
      </CharString>
      <CharString index="118">
        -491 -65 callgsubr
        return
      </CharString>
      <CharString index="119">
        130 84 131 vstem
        return
      </CharString>
      <CharString index="120">
        870 80 -23 80 hstem
        return
      </CharString>
      <CharString index="121">
        73 24 -44 -59 -63 -20 -38 -54 hvcurveto
        return
      </CharString>
      <CharString index="122">
        -324 -182 51 980 51 hstem
        return
      </CharString>
      <CharString index="123">
        hvcurveto
        -54 1 -32 -4 -17 -18 rrcurveto
        -104 return
      </CharString>
      <CharString index="124">
        0 callsubr
        endchar
      </CharString>
      <CharString index="125">
        vhcurveto
        -51 callsubr
        return
      </CharString>
      <CharString index="126">
        72 140 -21 574 -20 hstem
        return
      </CharString>
      <CharString index="127">
        -46 callgsubr
        799 -20 hstemhm
        return
      </CharString>
      <CharString index="128">
        rmoveto
        -17 6 -16 1 -17 -7 rrcurveto
        return
      </CharString>
      <CharString index="129">
        -25 -34 0 4 -31 hvcurveto
        endchar
      </CharString>
</ttFont>
